<svg xmlns="http://www.w3.org/2000/svg" viewBox="0 0 1200 675" width="1200" height="675" role="img" aria-label="Project P/L with a loss bar, dramatic dark composition">
  <defs>
    <radialGradient id="r4bg" cx="62%" cy="30%" r="85%"><stop offset="0" stop-color="#241b16"/><stop offset="0.6" stop-color="#161210"/><stop offset="1" stop-color="#0d0b0a"/></radialGradient>
    <radialGradient id="r4gl" cx="64%" cy="30%" r="46%"><stop offset="0" stop-color="#d7000f" stop-opacity="0.4"/><stop offset="1" stop-color="#d7000f" stop-opacity="0"/></radialGradient>
  </defs>
  <rect width="1200" height="675" fill="url(#r4bg)"/>
  <g stroke="#d7000f" stroke-opacity="0.20" stroke-width="1.3"><line x1="600" y1="350" x2="120" y2="120"/><line x1="600" y1="350" x2="180" y2="560"/><line x1="600" y1="350" x2="1120" y2="140"/><line x1="600" y1="350" x2="1080" y2="600"/><line x1="600" y1="350" x2="600" y2="-40"/><line x1="600" y1="350" x2="40" y2="360"/><line x1="600" y1="350" x2="1180" y2="360"/></g>
  <rect width="1200" height="675" fill="url(#r4gl)"/>
  <text x="1150" y="604" text-anchor="end" font-family="ui-sans-serif,system-ui,sans-serif" font-weight="800" font-size="360" fill="#ffffff" fill-opacity="0.05" letter-spacing="-12">04</text>
  <line x1="360" y1="350" x2="860" y2="350" stroke="#f2ece4" stroke-opacity="0.5" stroke-width="2.5" stroke-linecap="round"/>
  <g fill="#f2ece4" fill-opacity="0.85"><rect x="392" y="232" width="46" height="118" rx="3"/><rect x="470" y="190" width="46" height="160" rx="3"/><rect x="704" y="214" width="46" height="136" rx="3"/><rect x="782" y="272" width="46" height="78" rx="3"/></g>
  <rect x="600" y="350" width="46" height="100" rx="3" fill="#d7000f"/>
  <g stroke="#d7000f" stroke-width="4" fill="none" stroke-linecap="round"><circle cx="623" cy="400" r="58"/><line x1="664" y1="441" x2="706" y2="483"/></g>
  <text x="64" y="80" font-family="ui-monospace, 'SFMono-Regular', Menlo, monospace" fill="#b8b0a6" font-size="20" letter-spacing="3">MIRAI BIZLAB — CASE</text>
  <line x1="64" y1="600" x2="112" y2="600" stroke="#d7000f" stroke-width="3"/>
  <text x="124" y="606" font-family="ui-monospace, 'SFMono-Regular', Menlo, monospace" fill="#b8b0a6" font-size="19" letter-spacing="3">AD AGENCY · PROJECT P/L</text>
</svg>
