<svg xmlns="http://www.w3.org/2000/svg" viewBox="0 0 1200 675" width="1200" height="675" role="img" aria-label="Salon scissors, dramatic dark composition">
  <defs>
    <radialGradient id="r2bg" cx="58%" cy="30%" r="85%"><stop offset="0" stop-color="#241b16"/><stop offset="0.6" stop-color="#161210"/><stop offset="1" stop-color="#0d0b0a"/></radialGradient>
    <radialGradient id="r2gl" cx="62%" cy="32%" r="46%"><stop offset="0" stop-color="#d7000f" stop-opacity="0.4"/><stop offset="1" stop-color="#d7000f" stop-opacity="0"/></radialGradient>
  </defs>
  <rect width="1200" height="675" fill="url(#r2bg)"/>
  <g stroke="#d7000f" stroke-opacity="0.20" stroke-width="1.3"><line x1="600" y1="350" x2="120" y2="120"/><line x1="600" y1="350" x2="180" y2="560"/><line x1="600" y1="350" x2="1120" y2="140"/><line x1="600" y1="350" x2="1080" y2="600"/><line x1="600" y1="350" x2="600" y2="-40"/><line x1="600" y1="350" x2="40" y2="360"/><line x1="600" y1="350" x2="1180" y2="360"/></g>
  <rect width="1200" height="675" fill="url(#r2gl)"/>
  <text x="1150" y="604" text-anchor="end" font-family="ui-sans-serif,system-ui,sans-serif" font-weight="800" font-size="360" fill="#ffffff" fill-opacity="0.05" letter-spacing="-12">02</text>
  <circle cx="600" cy="350" r="240" fill="none" stroke="#ffffff" stroke-opacity="0.06" stroke-width="1.5"/>
  <circle cx="600" cy="350" r="170" fill="none" stroke="#ffffff" stroke-opacity="0.05" stroke-width="1.5"/>
  <!-- scissors -->
  <g fill="none" stroke-linecap="round" stroke-width="5">
    <line x1="600" y1="372" x2="500" y2="212" stroke="#f2ece4"/>
    <line x1="600" y1="372" x2="700" y2="212" stroke="#f2ece4"/>
    <line x1="600" y1="372" x2="548" y2="430" stroke="#d7000f"/>
    <line x1="600" y1="372" x2="652" y2="430" stroke="#d7000f"/>
    <circle cx="530" cy="460" r="30" stroke="#d7000f"/>
    <circle cx="670" cy="460" r="30" stroke="#d7000f"/>
    <circle cx="600" cy="372" r="7" fill="#f2ece4" stroke="none"/>
  </g>
  <!-- comb -->
  <g stroke="#f2ece4" stroke-width="4" stroke-linecap="round" fill="none" stroke-opacity="0.85">
    <line x1="772" y1="300" x2="900" y2="300"/>
    <line x1="784" y1="300" x2="784" y2="344"/><line x1="800" y1="300" x2="800" y2="344"/><line x1="816" y1="300" x2="816" y2="344"/><line x1="832" y1="300" x2="832" y2="344"/><line x1="848" y1="300" x2="848" y2="344"/><line x1="864" y1="300" x2="864" y2="344"/><line x1="880" y1="300" x2="880" y2="344"/>
  </g>
  <text x="64" y="80" font-family="ui-monospace, 'SFMono-Regular', Menlo, monospace" fill="#b8b0a6" font-size="20" letter-spacing="3">MIRAI BIZLAB — CASE</text>
  <line x1="64" y1="600" x2="112" y2="600" stroke="#d7000f" stroke-width="3"/>
  <text x="124" y="606" font-family="ui-monospace, 'SFMono-Regular', Menlo, monospace" fill="#b8b0a6" font-size="19" letter-spacing="3">SALON · PAYROLL</text>
</svg>
