<svg xmlns="http://www.w3.org/2000/svg" viewBox="0 0 1200 675" width="1200" height="675" role="img" aria-label="Salon scissors and a comb">
  <defs>
    <linearGradient id="bspP" x1="0" y1="0" x2="0.35" y2="1"><stop offset="0" stop-color="#f6f3ee"/><stop offset="1" stop-color="#e8e2d8"/></linearGradient>
    <radialGradient id="bspG" cx="58%" cy="32%" r="62%"><stop offset="0" stop-color="#d7000f" stop-opacity="0.12"/><stop offset="1" stop-color="#d7000f" stop-opacity="0"/></radialGradient>
  </defs>
  <rect width="1200" height="675" fill="url(#bspP)"/><rect width="1200" height="675" fill="url(#bspG)"/>
  <g stroke="#1f1d1b" stroke-opacity="0.045" stroke-width="1"><line x1="0" y1="135" x2="1200" y2="135"/><line x1="0" y1="270" x2="1200" y2="270"/><line x1="0" y1="405" x2="1200" y2="405"/><line x1="0" y1="540" x2="1200" y2="540"/></g>
  <g stroke="#1f1d1b" stroke-opacity="0.03" stroke-width="1"><line x1="300" y1="0" x2="300" y2="675"/><line x1="600" y1="0" x2="600" y2="675"/><line x1="900" y1="0" x2="900" y2="675"/></g>
  <circle cx="90" cy="120" r="220" fill="none" stroke="#1f1d1b" stroke-opacity="0.05" stroke-width="2"/>

  <!-- scissors -->
  <g fill="none" stroke-linecap="round" stroke-width="4">
    <line x1="560" y1="380" x2="470" y2="220" stroke="#1f1d1b"/>
    <line x1="560" y1="380" x2="650" y2="220" stroke="#1f1d1b"/>
    <line x1="560" y1="380" x2="512" y2="430" stroke="#d7000f"/>
    <line x1="560" y1="380" x2="608" y2="430" stroke="#d7000f"/>
    <circle cx="496" cy="456" r="28" stroke="#d7000f"/>
    <circle cx="624" cy="456" r="28" stroke="#d7000f"/>
    <circle cx="560" cy="380" r="6" fill="#1f1d1b" stroke="none"/>
  </g>
  <!-- comb -->
  <g stroke="#1f1d1b" stroke-width="4" stroke-linecap="round" fill="none">
    <line x1="724" y1="300" x2="860" y2="300"/>
    <line x1="736" y1="300" x2="736" y2="346"/><line x1="752" y1="300" x2="752" y2="346"/><line x1="768" y1="300" x2="768" y2="346"/><line x1="784" y1="300" x2="784" y2="346"/><line x1="800" y1="300" x2="800" y2="346"/><line x1="816" y1="300" x2="816" y2="346"/><line x1="832" y1="300" x2="832" y2="346"/><line x1="848" y1="300" x2="848" y2="346"/>
  </g>

  <text x="64" y="78" font-family="ui-monospace, 'SFMono-Regular', Menlo, monospace" fill="#8a8178" font-size="20" letter-spacing="3">MIRAI BIZLAB — CASE</text>
  <line x1="64" y1="600" x2="112" y2="600" stroke="#d7000f" stroke-width="3"/>
  <text x="124" y="606" font-family="ui-monospace, 'SFMono-Regular', Menlo, monospace" fill="#8a8178" font-size="19" letter-spacing="3">SALON · PAYROLL</text>
</svg>
