<svg xmlns="http://www.w3.org/2000/svg" viewBox="0 0 1200 675" width="1200" height="675" role="img" aria-label="Company incorporation with approval, dramatic dark composition">
  <defs>
    <radialGradient id="r6bg" cx="58%" cy="30%" r="85%"><stop offset="0" stop-color="#241b16"/><stop offset="0.6" stop-color="#161210"/><stop offset="1" stop-color="#0d0b0a"/></radialGradient>
    <radialGradient id="r6gl" cx="60%" cy="30%" r="46%"><stop offset="0" stop-color="#d7000f" stop-opacity="0.4"/><stop offset="1" stop-color="#d7000f" stop-opacity="0"/></radialGradient>
  </defs>
  <rect width="1200" height="675" fill="url(#r6bg)"/>
  <g stroke="#d7000f" stroke-opacity="0.20" stroke-width="1.3"><line x1="600" y1="350" x2="120" y2="120"/><line x1="600" y1="350" x2="180" y2="560"/><line x1="600" y1="350" x2="1120" y2="140"/><line x1="600" y1="350" x2="1080" y2="600"/><line x1="600" y1="350" x2="600" y2="-40"/><line x1="600" y1="350" x2="40" y2="360"/><line x1="600" y1="350" x2="1180" y2="360"/></g>
  <rect width="1200" height="675" fill="url(#r6gl)"/>
  <text x="1150" y="604" text-anchor="end" font-family="ui-sans-serif,system-ui,sans-serif" font-weight="800" font-size="360" fill="#ffffff" fill-opacity="0.05" letter-spacing="-12">06</text>
  <circle cx="600" cy="340" r="240" fill="none" stroke="#ffffff" stroke-opacity="0.06" stroke-width="1.5"/>
  <!-- building -->
  <g fill="none" stroke="#f2ece4" stroke-width="3" stroke-linejoin="round">
    <rect x="492" y="230" width="216" height="284"/>
    <line x1="492" y1="230" x2="600" y2="172"/><line x1="708" y1="230" x2="600" y2="172"/>
    <g stroke-opacity="0.5" stroke-width="2.5"><rect x="524" y="266" width="46" height="42"/><rect x="630" y="266" width="46" height="42"/><rect x="524" y="338" width="46" height="42"/><rect x="630" y="338" width="46" height="42"/></g>
    <rect x="574" y="438" width="56" height="76"/>
  </g>
  <line x1="430" y1="514" x2="770" y2="514" stroke="#f2ece4" stroke-opacity="0.3" stroke-width="2.5" stroke-linecap="round"/>
  <!-- F&B fork+knife -->
  <g stroke="#f2ece4" stroke-width="3" stroke-linecap="round" fill="none" stroke-opacity="0.7"><line x1="756" y1="250" x2="756" y2="320"/><line x1="746" y1="250" x2="746" y2="278"/><line x1="766" y1="250" x2="766" y2="278"/><line x1="796" y1="250" x2="796" y2="320"/><path d="M796 250 q-14 16 0 34"/></g>
  <!-- approval seal -->
  <g transform="translate(672 460)"><circle r="48" fill="#d7000f"/><circle r="60" fill="none" stroke="#d7000f" stroke-opacity="0.4" stroke-width="2"/><path d="M-21 2 L-6 19 L23 -17" fill="none" stroke="#ffffff" stroke-width="7" stroke-linecap="round" stroke-linejoin="round"/></g>
  <text x="64" y="80" font-family="ui-monospace, 'SFMono-Regular', Menlo, monospace" fill="#b8b0a6" font-size="20" letter-spacing="3">MIRAI BIZLAB — CASE</text>
  <line x1="64" y1="600" x2="112" y2="600" stroke="#d7000f" stroke-width="3"/>
  <text x="124" y="606" font-family="ui-monospace, 'SFMono-Regular', Menlo, monospace" fill="#b8b0a6" font-size="19" letter-spacing="3">INCORPORATION · F&amp;B</text>
</svg>
