<svg xmlns="http://www.w3.org/2000/svg" viewBox="0 0 1200 675" width="1200" height="675" role="img" aria-label="Case study 07 — precision instrument composition">
<defs>
<radialGradient id="depth" cx="38%" cy="50%" r="95%"><stop offset="0" stop-color="#1A1417"/><stop offset="0.45" stop-color="#121014" stop-opacity="0"/><stop offset="1" stop-color="#0B0A0C"/></radialGradient>
<filter id="grain" x="0" y="0" width="100%" height="100%"><feTurbulence type="fractalNoise" baseFrequency="0.9" numOctaves="2" stitchTiles="stitch"/><feColorMatrix type="matrix" values="0 0 0 0 1 0 0 0 0 1 0 0 0 0 1 0 0 0 0.055 0"/></filter>
</defs>
<rect width="1200" height="675" fill="#0F0E11"/>
<rect width="1200" height="675" fill="url(#depth)"/>
<text x="1144" y="611" text-anchor="end" font-family="Helvetica Neue, Arial, sans-serif" font-weight="800" font-size="351" letter-spacing="-14" fill="#EDE9E1" fill-opacity="0.045">07</text>
<line x1="456.0" y1="337.5" x2="813.6" y2="1545.3" stroke="#EDE9E1" stroke-opacity="0.048" stroke-width="0.62"/>
<line x1="456.0" y1="337.5" x2="563.8" y2="-640.4" stroke="#EDE9E1" stroke-opacity="0.062" stroke-width="0.59"/>
<line x1="456.0" y1="337.5" x2="-474.3" y2="1092.0" stroke="#EDE9E1" stroke-opacity="0.093" stroke-width="0.63"/>
<line x1="456.0" y1="337.5" x2="218.5" y2="909.6" stroke="#EDE9E1" stroke-opacity="0.054" stroke-width="0.74"/>
<line x1="456.0" y1="337.5" x2="663.0" y2="1254.5" stroke="#EDE9E1" stroke-opacity="0.055" stroke-width="0.97"/>
<line x1="456.0" y1="337.5" x2="-387.8" y2="445.8" stroke="#EDE9E1" stroke-opacity="0.090" stroke-width="0.92"/>
<line x1="456.0" y1="337.5" x2="553.4" y2="1143.4" stroke="#EDE9E1" stroke-opacity="0.073" stroke-width="0.98"/>
<line x1="456.0" y1="337.5" x2="-207.0" y2="-216.0" stroke="#EDE9E1" stroke-opacity="0.034" stroke-width="0.89"/>
<line x1="456.0" y1="337.5" x2="-699.3" y2="607.0" stroke="#EDE9E1" stroke-opacity="0.081" stroke-width="0.55"/>
<line x1="456.0" y1="337.5" x2="1433.3" y2="-226.8" stroke="#EDE9E1" stroke-opacity="0.072" stroke-width="0.53"/>
<line x1="456.0" y1="337.5" x2="1035.3" y2="-26.1" stroke="#EDE9E1" stroke-opacity="0.066" stroke-width="0.86"/>
<line x1="456.0" y1="337.5" x2="-362.1" y2="233.4" stroke="#EDE9E1" stroke-opacity="0.096" stroke-width="0.78"/>
<line x1="456.0" y1="337.5" x2="-531.1" y2="909.9" stroke="#EDE9E1" stroke-opacity="0.069" stroke-width="0.85"/>
<line x1="456.0" y1="337.5" x2="388.7" y2="1328.0" stroke="#EDE9E1" stroke-opacity="0.032" stroke-width="0.83"/>
<line x1="456.0" y1="337.5" x2="-533.1" y2="-414.7" stroke="#EDE9E1" stroke-opacity="0.046" stroke-width="0.79"/>
<line x1="456.0" y1="337.5" x2="-746.7" y2="332.0" stroke="#EDE9E1" stroke-opacity="0.083" stroke-width="0.92"/>
<line x1="456.0" y1="337.5" x2="1113.4" y2="1311.7" stroke="#EDE9E1" stroke-opacity="0.095" stroke-width="0.55"/>
<line x1="456.0" y1="337.5" x2="720.1" y2="1562.0" stroke="#EDE9E1" stroke-opacity="0.031" stroke-width="0.73"/>
<line x1="456.0" y1="337.5" x2="-683.3" y2="305.7" stroke="#EDE9E1" stroke-opacity="0.066" stroke-width="0.70"/>
<line x1="456.0" y1="337.5" x2="432.9" y2="1246.8" stroke="#EDE9E1" stroke-opacity="0.085" stroke-width="0.97"/>
<line x1="456.0" y1="337.5" x2="-634.7" y2="570.7" stroke="#EDE9E1" stroke-opacity="0.077" stroke-width="0.79"/>
<line x1="456.0" y1="337.5" x2="1326.7" y2="-110.2" stroke="#EDE9E1" stroke-opacity="0.034" stroke-width="0.58"/>
<line x1="456.0" y1="337.5" x2="844.3" y2="-325.9" stroke="#EDE9E1" stroke-opacity="0.032" stroke-width="0.86"/>
<line x1="456.0" y1="337.5" x2="-317.6" y2="742.0" stroke="#EDE9E1" stroke-opacity="0.090" stroke-width="0.56"/>
<line x1="456.0" y1="337.5" x2="688.2" y2="-445.1" stroke="#EDE9E1" stroke-opacity="0.079" stroke-width="0.60"/>
<line x1="456.0" y1="337.5" x2="1087.5" y2="13.4" stroke="#EDE9E1" stroke-opacity="0.088" stroke-width="0.92"/>
<line x1="456.0" y1="337.5" x2="-125.5" y2="-240.8" stroke="#EDE9E1" stroke-opacity="0.082" stroke-width="0.99"/>
<line x1="456.0" y1="337.5" x2="-262.1" y2="346.9" stroke="#EDE9E1" stroke-opacity="0.046" stroke-width="0.79"/>
<line x1="456.0" y1="337.5" x2="504.8" y2="1240.5" stroke="#EDE9E1" stroke-opacity="0.047" stroke-width="0.84"/>
<line x1="456.0" y1="337.5" x2="909.8" y2="-442.9" stroke="#EDE9E1" stroke-opacity="0.044" stroke-width="0.94"/>
<line x1="456.0" y1="337.5" x2="1342.5" y2="88.4" stroke="#EDE9E1" stroke-opacity="0.085" stroke-width="0.74"/>
<line x1="456.0" y1="337.5" x2="874.5" y2="1098.7" stroke="#EDE9E1" stroke-opacity="0.073" stroke-width="0.52"/>
<line x1="456.0" y1="337.5" x2="264.0" y2="-711.4" stroke="#EDE9E1" stroke-opacity="0.081" stroke-width="0.96"/>
<line x1="456.0" y1="337.5" x2="190.9" y2="1025.1" stroke="#EDE9E1" stroke-opacity="0.030" stroke-width="0.94"/>
<line x1="456.0" y1="337.5" x2="-576.3" y2="1088.5" stroke="#EDE9E1" stroke-opacity="0.058" stroke-width="0.96"/>
<line x1="456.0" y1="337.5" x2="-273.3" y2="490.4" stroke="#EDE9E1" stroke-opacity="0.066" stroke-width="0.91"/>
<line x1="456.0" y1="337.5" x2="1003.0" y2="145.2" stroke="#EDE9E1" stroke-opacity="0.062" stroke-width="0.97"/>
<line x1="456.0" y1="337.5" x2="771.2" y2="-643.4" stroke="#EDE9E1" stroke-opacity="0.090" stroke-width="0.92"/>
<line x1="456.0" y1="337.5" x2="1142.2" y2="125.2" stroke="#EDE9E1" stroke-opacity="0.066" stroke-width="0.79"/>
<line x1="456.0" y1="337.5" x2="786.5" y2="-519.5" stroke="#EDE9E1" stroke-opacity="0.084" stroke-width="0.81"/>
<line x1="456.0" y1="337.5" x2="1526.0" y2="-364.2" stroke="#EDE9E1" stroke-opacity="0.071" stroke-width="0.93"/>
<line x1="456.0" y1="337.5" x2="62.5" y2="-782.9" stroke="#EDE9E1" stroke-opacity="0.063" stroke-width="0.93"/>
<line x1="456.0" y1="337.5" x2="1611.1" y2="22.8" stroke="#EDE9E1" stroke-opacity="0.048" stroke-width="0.51"/>
<line x1="456.0" y1="337.5" x2="900.6" y2="800.5" stroke="#EDE9E1" stroke-opacity="0.078" stroke-width="0.52"/>
<line x1="456.0" y1="337.5" x2="768.8" y2="981.3" stroke="#EDE9E1" stroke-opacity="0.060" stroke-width="0.92"/>
<line x1="456.0" y1="337.5" x2="1135.3" y2="-474.7" stroke="#EDE9E1" stroke-opacity="0.031" stroke-width="0.68"/>
<line x1="456.0" y1="337.5" x2="-599.7" y2="731.7" stroke="#EDE9E1" stroke-opacity="0.070" stroke-width="0.62"/>
<line x1="456.0" y1="337.5" x2="640.3" y2="861.5" stroke="#EDE9E1" stroke-opacity="0.070" stroke-width="0.86"/>
<line x1="456.0" y1="337.5" x2="-14.0" y2="-453.3" stroke="#EDE9E1" stroke-opacity="0.083" stroke-width="0.92"/>
<line x1="456.0" y1="337.5" x2="1462.6" y2="-140.0" stroke="#EDE9E1" stroke-opacity="0.045" stroke-width="0.82"/>
<line x1="456.0" y1="337.5" x2="209.4" y2="-211.5" stroke="#EDE9E1" stroke-opacity="0.073" stroke-width="0.93"/>
<line x1="456.0" y1="337.5" x2="-82.8" y2="4.2" stroke="#EDE9E1" stroke-opacity="0.077" stroke-width="0.72"/>
<line x1="456.0" y1="337.5" x2="-515.5" y2="1096.0" stroke="#EDE9E1" stroke-opacity="0.041" stroke-width="0.94"/>
<line x1="456.0" y1="337.5" x2="455.8" y2="-377.5" stroke="#EDE9E1" stroke-opacity="0.064" stroke-width="0.59"/>
<line x1="456.0" y1="337.5" x2="-597.8" y2="429.0" stroke="#EDE9E1" stroke-opacity="0.075" stroke-width="0.84"/>
<line x1="456.0" y1="337.5" x2="-0.9" y2="1524.6" stroke="#EDE9E1" stroke-opacity="0.081" stroke-width="0.71"/>
<line x1="456.0" y1="337.5" x2="1494.3" y2="347.3" stroke="#EDE9E1" stroke-opacity="0.037" stroke-width="0.76"/>
<line x1="456.0" y1="337.5" x2="1096.9" y2="685.3" stroke="#EDE9E1" stroke-opacity="0.059" stroke-width="0.54"/>
<line x1="456.0" y1="337.5" x2="-61.4" y2="-229.5" stroke="#EDE9E1" stroke-opacity="0.056" stroke-width="0.59"/>
<line x1="456.0" y1="337.5" x2="-717.4" y2="-52.0" stroke="#EDE9E1" stroke-opacity="0.062" stroke-width="0.77"/>
<line x1="456.0" y1="337.5" x2="1025.8" y2="875.9" stroke="#EDE9E1" stroke-opacity="0.054" stroke-width="0.96"/>
<line x1="456.0" y1="337.5" x2="347.6" y2="-198.8" stroke="#EDE9E1" stroke-opacity="0.035" stroke-width="0.89"/>
<line x1="456.0" y1="337.5" x2="681.8" y2="1313.5" stroke="#EDE9E1" stroke-opacity="0.035" stroke-width="0.65"/>
<line x1="456.0" y1="337.5" x2="797.1" y2="-399.5" stroke="#EDE9E1" stroke-opacity="0.071" stroke-width="0.94"/>
<line x1="456.0" y1="337.5" x2="1261.3" y2="738.0" stroke="#EDE9E1" stroke-opacity="0.039" stroke-width="0.70"/>
<line x1="456.0" y1="337.5" x2="-6.4" y2="-365.6" stroke="#EDE9E1" stroke-opacity="0.035" stroke-width="0.79"/>
<line x1="456.0" y1="337.5" x2="1555.5" y2="759.3" stroke="#EDE9E1" stroke-opacity="0.026" stroke-width="0.55"/>
<line x1="456.0" y1="337.5" x2="1359.4" y2="-552.2" stroke="#EDE9E1" stroke-opacity="0.094" stroke-width="0.96"/>
<line x1="456.0" y1="337.5" x2="997.6" y2="398.1" stroke="#EDE9E1" stroke-opacity="0.051" stroke-width="0.97"/>
<line x1="456.0" y1="337.5" x2="1086.4" y2="-207.9" stroke="#EDE9E1" stroke-opacity="0.039" stroke-width="0.75"/>
<line x1="456.0" y1="337.5" x2="-81.1" y2="691.7" stroke="#EDE9E1" stroke-opacity="0.089" stroke-width="0.80"/>
<line x1="456.0" y1="337.5" x2="-63.1" y2="-198.5" stroke="#EDE9E1" stroke-opacity="0.029" stroke-width="0.93"/>
<line x1="456.0" y1="337.5" x2="1162.4" y2="661.1" stroke="#EDE9E1" stroke-opacity="0.029" stroke-width="0.79"/>
<line x1="456.0" y1="337.5" x2="1284.9" y2="1034.0" stroke="#EDE9E1" stroke-opacity="0.031" stroke-width="0.85"/>
<line x1="456.0" y1="337.5" x2="-449.8" y2="-116.6" stroke="#EDE9E1" stroke-opacity="0.088" stroke-width="0.88"/>
<line x1="456.0" y1="337.5" x2="-74.7" y2="665.4" stroke="#EDE9E1" stroke-opacity="0.046" stroke-width="0.89"/>
<line x1="456.0" y1="337.5" x2="1222.4" y2="81.1" stroke="#EDE9E1" stroke-opacity="0.093" stroke-width="0.90"/>
<line x1="456.0" y1="337.5" x2="97.8" y2="-843.7" stroke="#EDE9E1" stroke-opacity="0.094" stroke-width="0.89"/>
<line x1="456.0" y1="337.5" x2="793.8" y2="858.6" stroke="#EDE9E1" stroke-opacity="0.054" stroke-width="1.00"/>
<line x1="456.0" y1="337.5" x2="-46.8" y2="715.2" stroke="#EDE9E1" stroke-opacity="0.059" stroke-width="0.58"/>
<line x1="456.0" y1="337.5" x2="1389.7" y2="758.0" stroke="#EDE9E1" stroke-opacity="0.050" stroke-width="0.85"/>
<line x1="456.0" y1="337.5" x2="1165.2" y2="62.3" stroke="#EDE9E1" stroke-opacity="0.027" stroke-width="0.51"/>
<line x1="456.0" y1="337.5" x2="509.6" y2="1086.2" stroke="#EDE9E1" stroke-opacity="0.072" stroke-width="0.62"/>
<line x1="456.0" y1="337.5" x2="1397.0" y2="-13.7" stroke="#EDE9E1" stroke-opacity="0.075" stroke-width="0.98"/>
<line x1="456.0" y1="337.5" x2="1275.1" y2="-367.2" stroke="#EDE9E1" stroke-opacity="0.047" stroke-width="0.99"/>
<line x1="456.0" y1="337.5" x2="775.6" y2="-651.0" stroke="#EDE9E1" stroke-opacity="0.069" stroke-width="0.71"/>
<line x1="456.0" y1="337.5" x2="467.0" y2="-385.9" stroke="#EDE9E1" stroke-opacity="0.079" stroke-width="0.59"/>
<line x1="456.0" y1="337.5" x2="-126.4" y2="-348.7" stroke="#EDE9E1" stroke-opacity="0.037" stroke-width="0.73"/>
<line x1="456.0" y1="337.5" x2="1387.0" y2="-139.3" stroke="#EDE9E1" stroke-opacity="0.042" stroke-width="0.94"/>
<line x1="456.0" y1="337.5" x2="1126.0" y2="791.6" stroke="#EDE9E1" stroke-opacity="0.078" stroke-width="0.61"/>
<line x1="456.0" y1="337.5" x2="52.1" y2="-399.8" stroke="#EDE9E1" stroke-opacity="0.061" stroke-width="0.90"/>
<line x1="456.0" y1="337.5" x2="1064.9" y2="-175.6" stroke="#EDE9E1" stroke-opacity="0.078" stroke-width="0.99"/>
<line x1="456.0" y1="337.5" x2="-11.6" y2="-129.5" stroke="#EDE9E1" stroke-opacity="0.057" stroke-width="0.59"/>
<line x1="456.0" y1="337.5" x2="-138.5" y2="470.9" stroke="#EDE9E1" stroke-opacity="0.076" stroke-width="0.77"/>
<line x1="456.0" y1="337.5" x2="-247.3" y2="355.5" stroke="#EDE9E1" stroke-opacity="0.090" stroke-width="0.80"/>
<line x1="456.0" y1="337.5" x2="-187.2" y2="432.3" stroke="#EDE9E1" stroke-opacity="0.044" stroke-width="0.76"/>
<line x1="456.0" y1="337.5" x2="323.4" y2="-310.2" stroke="#EDE9E1" stroke-opacity="0.077" stroke-width="0.58"/>
<line x1="456.0" y1="337.5" x2="1309.6" y2="403.0" stroke="#EDE9E1" stroke-opacity="0.056" stroke-width="0.76"/>
<line x1="456.0" y1="337.5" x2="-314.5" y2="-78.6" stroke="#EDE9E1" stroke-opacity="0.035" stroke-width="0.89"/>
<line x1="456.0" y1="337.5" x2="35.3" y2="-340.8" stroke="#EDE9E1" stroke-opacity="0.036" stroke-width="0.88"/>
<line x1="456.0" y1="337.5" x2="800.6" y2="-211.9" stroke="#EDE9E1" stroke-opacity="0.033" stroke-width="0.72"/>
<line x1="456.0" y1="337.5" x2="779.7" y2="-242.7" stroke="#EDE9E1" stroke-opacity="0.046" stroke-width="0.79"/>
<line x1="456.0" y1="337.5" x2="358.8" y2="1395.2" stroke="#EDE9E1" stroke-opacity="0.064" stroke-width="0.81"/>
<line x1="456.0" y1="337.5" x2="-115.7" y2="527.9" stroke="#EDE9E1" stroke-opacity="0.084" stroke-width="0.78"/>
<line x1="456.0" y1="337.5" x2="-576.5" y2="-322.6" stroke="#EDE9E1" stroke-opacity="0.055" stroke-width="0.68"/>
<line x1="456.0" y1="337.5" x2="700.3" y2="-895.3" stroke="#EDE9E1" stroke-opacity="0.070" stroke-width="0.52"/>
<line x1="456.0" y1="337.5" x2="85.3" y2="1116.4" stroke="#EDE9E1" stroke-opacity="0.028" stroke-width="0.61"/>
<line x1="456.0" y1="337.5" x2="1007.4" y2="790.4" stroke="#EDE9E1" stroke-opacity="0.056" stroke-width="0.93"/>
<line x1="456.0" y1="337.5" x2="-694.3" y2="688.9" stroke="#EDE9E1" stroke-opacity="0.059" stroke-width="0.70"/>
<line x1="456.0" y1="337.5" x2="1059.8" y2="499.5" stroke="#EDE9E1" stroke-opacity="0.070" stroke-width="0.53"/>
<line x1="456.0" y1="337.5" x2="468.3" y2="-624.6" stroke="#EDE9E1" stroke-opacity="0.028" stroke-width="0.54"/>
<line x1="456.0" y1="337.5" x2="1518.7" y2="349.4" stroke="#EDE9E1" stroke-opacity="0.093" stroke-width="0.91"/>
<line x1="456.0" y1="337.5" x2="662.5" y2="-348.2" stroke="#EDE9E1" stroke-opacity="0.029" stroke-width="0.80"/>
<line x1="456.0" y1="337.5" x2="793.7" y2="-779.8" stroke="#EDE9E1" stroke-opacity="0.070" stroke-width="0.94"/>
<line x1="456.0" y1="337.5" x2="12.4" y2="-758.1" stroke="#EDE9E1" stroke-opacity="0.083" stroke-width="0.87"/>
<line x1="456.0" y1="337.5" x2="480.0" y2="1392.1" stroke="#EDE9E1" stroke-opacity="0.092" stroke-width="0.71"/>
<line x1="456.0" y1="337.5" x2="-354.7" y2="866.2" stroke="#EDE9E1" stroke-opacity="0.049" stroke-width="0.74"/>
<line x1="456.0" y1="337.5" x2="1437.7" y2="759.5" stroke="#EDE9E1" stroke-opacity="0.079" stroke-width="0.76"/>
<line x1="456.0" y1="337.5" x2="385.9" y2="1203.1" stroke="#EDE9E1" stroke-opacity="0.047" stroke-width="0.81"/>
<line x1="456.0" y1="337.5" x2="-468.3" y2="130.1" stroke="#EDE9E1" stroke-opacity="0.077" stroke-width="0.76"/>
<line x1="456.0" y1="337.5" x2="-73.2" y2="479.7" stroke="#EDE9E1" stroke-opacity="0.085" stroke-width="0.52"/>
<line x1="456.0" y1="337.5" x2="1312.3" y2="885.6" stroke="#EDE9E1" stroke-opacity="0.039" stroke-width="0.55"/>
<line x1="456.0" y1="337.5" x2="331.6" y2="926.7" stroke="#EDE9E1" stroke-opacity="0.086" stroke-width="0.70"/>
<line x1="456.0" y1="337.5" x2="1116.6" y2="1400.5" stroke="#EDE9E1" stroke-opacity="0.061" stroke-width="0.76"/>
<line x1="456.0" y1="337.5" x2="639.6" y2="1231.5" stroke="#EDE9E1" stroke-opacity="0.074" stroke-width="0.63"/>
<line x1="456.0" y1="337.5" x2="678.3" y2="884.1" stroke="#EDE9E1" stroke-opacity="0.072" stroke-width="0.73"/>
<line x1="456.0" y1="337.5" x2="814.3" y2="-786.9" stroke="#EDE9E1" stroke-opacity="0.077" stroke-width="0.52"/>
<line x1="456.0" y1="337.5" x2="-738.6" y2="157.0" stroke="#EDE9E1" stroke-opacity="0.050" stroke-width="0.62"/>
<circle cx="456" cy="337.5" r="101.3" fill="none" stroke="#EDE9E1" stroke-opacity="0.110" stroke-width="1"/>
<line x1="548.3" y1="337.5" x2="557.3" y2="337.5" stroke="#EDE9E1" stroke-opacity="0.300" stroke-width="1.1"/>
<line x1="551.1" y1="357.7" x2="555.0" y2="358.6" stroke="#EDE9E1" stroke-opacity="0.130" stroke-width="0.6"/>
<line x1="544.8" y1="377.1" x2="548.5" y2="378.7" stroke="#EDE9E1" stroke-opacity="0.130" stroke-width="0.6"/>
<line x1="534.7" y1="394.7" x2="537.9" y2="397.0" stroke="#EDE9E1" stroke-opacity="0.130" stroke-width="0.6"/>
<line x1="521.1" y1="409.8" x2="523.7" y2="412.7" stroke="#EDE9E1" stroke-opacity="0.130" stroke-width="0.6"/>
<line x1="502.1" y1="417.4" x2="506.6" y2="425.2" stroke="#EDE9E1" stroke-opacity="0.300" stroke-width="1.1"/>
<line x1="486.1" y1="430.0" x2="487.3" y2="433.8" stroke="#EDE9E1" stroke-opacity="0.130" stroke-width="0.6"/>
<line x1="466.2" y1="434.2" x2="466.6" y2="438.2" stroke="#EDE9E1" stroke-opacity="0.130" stroke-width="0.6"/>
<line x1="445.8" y1="434.2" x2="445.4" y2="438.2" stroke="#EDE9E1" stroke-opacity="0.130" stroke-width="0.6"/>
<line x1="425.9" y1="430.0" x2="424.7" y2="433.8" stroke="#EDE9E1" stroke-opacity="0.130" stroke-width="0.6"/>
<line x1="409.9" y1="417.4" x2="405.4" y2="425.2" stroke="#EDE9E1" stroke-opacity="0.300" stroke-width="1.1"/>
<line x1="390.9" y1="409.8" x2="388.3" y2="412.7" stroke="#EDE9E1" stroke-opacity="0.130" stroke-width="0.6"/>
<line x1="377.3" y1="394.7" x2="374.1" y2="397.0" stroke="#EDE9E1" stroke-opacity="0.130" stroke-width="0.6"/>
<line x1="367.2" y1="377.1" x2="363.5" y2="378.7" stroke="#EDE9E1" stroke-opacity="0.130" stroke-width="0.6"/>
<line x1="360.9" y1="357.7" x2="357.0" y2="358.6" stroke="#EDE9E1" stroke-opacity="0.130" stroke-width="0.6"/>
<line x1="363.8" y1="337.5" x2="354.8" y2="337.5" stroke="#EDE9E1" stroke-opacity="0.300" stroke-width="1.1"/>
<line x1="360.9" y1="317.3" x2="357.0" y2="316.4" stroke="#EDE9E1" stroke-opacity="0.130" stroke-width="0.6"/>
<line x1="367.2" y1="297.9" x2="363.5" y2="296.3" stroke="#EDE9E1" stroke-opacity="0.130" stroke-width="0.6"/>
<line x1="377.3" y1="280.3" x2="374.1" y2="278.0" stroke="#EDE9E1" stroke-opacity="0.130" stroke-width="0.6"/>
<line x1="390.9" y1="265.2" x2="388.3" y2="262.3" stroke="#EDE9E1" stroke-opacity="0.130" stroke-width="0.6"/>
<line x1="409.9" y1="257.6" x2="405.4" y2="249.8" stroke="#EDE9E1" stroke-opacity="0.300" stroke-width="1.1"/>
<line x1="425.9" y1="245.0" x2="424.7" y2="241.2" stroke="#EDE9E1" stroke-opacity="0.130" stroke-width="0.6"/>
<line x1="445.8" y1="240.8" x2="445.4" y2="236.8" stroke="#EDE9E1" stroke-opacity="0.130" stroke-width="0.6"/>
<line x1="466.2" y1="240.8" x2="466.6" y2="236.8" stroke="#EDE9E1" stroke-opacity="0.130" stroke-width="0.6"/>
<line x1="486.1" y1="245.0" x2="487.3" y2="241.2" stroke="#EDE9E1" stroke-opacity="0.130" stroke-width="0.6"/>
<line x1="502.1" y1="257.6" x2="506.6" y2="249.8" stroke="#EDE9E1" stroke-opacity="0.300" stroke-width="1.1"/>
<line x1="521.1" y1="265.2" x2="523.7" y2="262.3" stroke="#EDE9E1" stroke-opacity="0.130" stroke-width="0.6"/>
<line x1="534.7" y1="280.3" x2="537.9" y2="278.0" stroke="#EDE9E1" stroke-opacity="0.130" stroke-width="0.6"/>
<line x1="544.8" y1="297.9" x2="548.5" y2="296.3" stroke="#EDE9E1" stroke-opacity="0.130" stroke-width="0.6"/>
<line x1="551.1" y1="317.3" x2="555.0" y2="316.4" stroke="#EDE9E1" stroke-opacity="0.130" stroke-width="0.6"/>
<circle cx="456" cy="337.5" r="175.5" fill="none" stroke="#EDE9E1" stroke-opacity="0.200" stroke-width="1"/>
<line x1="622.5" y1="337.5" x2="631.5" y2="337.5" stroke="#EDE9E1" stroke-opacity="0.300" stroke-width="1.1"/>
<line x1="626.2" y1="358.2" x2="630.2" y2="358.7" stroke="#EDE9E1" stroke-opacity="0.130" stroke-width="0.6"/>
<line x1="622.5" y1="378.5" x2="626.4" y2="379.5" stroke="#EDE9E1" stroke-opacity="0.130" stroke-width="0.6"/>
<line x1="616.4" y1="398.3" x2="620.1" y2="399.7" stroke="#EDE9E1" stroke-opacity="0.130" stroke-width="0.6"/>
<line x1="607.9" y1="417.2" x2="611.4" y2="419.1" stroke="#EDE9E1" stroke-opacity="0.130" stroke-width="0.6"/>
<line x1="593.0" y1="432.1" x2="600.4" y2="437.2" stroke="#EDE9E1" stroke-opacity="0.300" stroke-width="1.1"/>
<line x1="584.4" y1="451.2" x2="587.4" y2="453.9" stroke="#EDE9E1" stroke-opacity="0.130" stroke-width="0.6"/>
<line x1="569.7" y1="465.9" x2="572.4" y2="468.9" stroke="#EDE9E1" stroke-opacity="0.130" stroke-width="0.6"/>
<line x1="553.4" y1="478.6" x2="555.7" y2="481.9" stroke="#EDE9E1" stroke-opacity="0.130" stroke-width="0.6"/>
<line x1="535.7" y1="489.4" x2="537.6" y2="492.9" stroke="#EDE9E1" stroke-opacity="0.130" stroke-width="0.6"/>
<line x1="515.0" y1="493.2" x2="518.2" y2="501.6" stroke="#EDE9E1" stroke-opacity="0.300" stroke-width="1.1"/>
<line x1="497.0" y1="504.0" x2="498.0" y2="507.9" stroke="#EDE9E1" stroke-opacity="0.130" stroke-width="0.6"/>
<line x1="476.7" y1="507.7" x2="477.2" y2="511.7" stroke="#EDE9E1" stroke-opacity="0.130" stroke-width="0.6"/>
<line x1="456.0" y1="509.0" x2="456.0" y2="513.0" stroke="#EDE9E1" stroke-opacity="0.130" stroke-width="0.6"/>
<line x1="435.3" y1="507.7" x2="434.8" y2="511.7" stroke="#EDE9E1" stroke-opacity="0.130" stroke-width="0.6"/>
<line x1="416.2" y1="499.2" x2="414.0" y2="507.9" stroke="#EDE9E1" stroke-opacity="0.300" stroke-width="1.1"/>
<line x1="395.2" y1="497.9" x2="393.8" y2="501.6" stroke="#EDE9E1" stroke-opacity="0.130" stroke-width="0.6"/>
<line x1="376.3" y1="489.4" x2="374.4" y2="492.9" stroke="#EDE9E1" stroke-opacity="0.130" stroke-width="0.6"/>
<line x1="358.6" y1="478.6" x2="356.3" y2="481.9" stroke="#EDE9E1" stroke-opacity="0.130" stroke-width="0.6"/>
<line x1="342.3" y1="465.9" x2="339.6" y2="468.9" stroke="#EDE9E1" stroke-opacity="0.130" stroke-width="0.6"/>
<line x1="331.4" y1="447.9" x2="324.6" y2="453.9" stroke="#EDE9E1" stroke-opacity="0.300" stroke-width="1.1"/>
<line x1="314.9" y1="434.9" x2="311.6" y2="437.2" stroke="#EDE9E1" stroke-opacity="0.130" stroke-width="0.6"/>
<line x1="304.1" y1="417.2" x2="300.6" y2="419.1" stroke="#EDE9E1" stroke-opacity="0.130" stroke-width="0.6"/>
<line x1="295.6" y1="398.3" x2="291.9" y2="399.7" stroke="#EDE9E1" stroke-opacity="0.130" stroke-width="0.6"/>
<line x1="289.5" y1="378.5" x2="285.6" y2="379.5" stroke="#EDE9E1" stroke-opacity="0.130" stroke-width="0.6"/>
<line x1="290.7" y1="357.6" x2="281.8" y2="358.7" stroke="#EDE9E1" stroke-opacity="0.300" stroke-width="1.1"/>
<line x1="284.5" y1="337.5" x2="280.5" y2="337.5" stroke="#EDE9E1" stroke-opacity="0.130" stroke-width="0.6"/>
<line x1="285.8" y1="316.8" x2="281.8" y2="316.3" stroke="#EDE9E1" stroke-opacity="0.130" stroke-width="0.6"/>
<line x1="289.5" y1="296.5" x2="285.6" y2="295.5" stroke="#EDE9E1" stroke-opacity="0.130" stroke-width="0.6"/>
<line x1="295.6" y1="276.7" x2="291.9" y2="275.3" stroke="#EDE9E1" stroke-opacity="0.130" stroke-width="0.6"/>
<line x1="308.6" y1="260.1" x2="300.6" y2="255.9" stroke="#EDE9E1" stroke-opacity="0.300" stroke-width="1.1"/>
<line x1="314.9" y1="240.1" x2="311.6" y2="237.8" stroke="#EDE9E1" stroke-opacity="0.130" stroke-width="0.6"/>
<line x1="327.6" y1="223.8" x2="324.6" y2="221.1" stroke="#EDE9E1" stroke-opacity="0.130" stroke-width="0.6"/>
<line x1="342.3" y1="209.1" x2="339.6" y2="206.1" stroke="#EDE9E1" stroke-opacity="0.130" stroke-width="0.6"/>
<line x1="358.6" y1="196.4" x2="356.3" y2="193.1" stroke="#EDE9E1" stroke-opacity="0.130" stroke-width="0.6"/>
<line x1="378.6" y1="190.1" x2="374.4" y2="182.1" stroke="#EDE9E1" stroke-opacity="0.300" stroke-width="1.1"/>
<line x1="395.2" y1="177.1" x2="393.8" y2="173.4" stroke="#EDE9E1" stroke-opacity="0.130" stroke-width="0.6"/>
<line x1="415.0" y1="171.0" x2="414.0" y2="167.1" stroke="#EDE9E1" stroke-opacity="0.130" stroke-width="0.6"/>
<line x1="435.3" y1="167.3" x2="434.8" y2="163.3" stroke="#EDE9E1" stroke-opacity="0.130" stroke-width="0.6"/>
<line x1="456.0" y1="166.0" x2="456.0" y2="162.0" stroke="#EDE9E1" stroke-opacity="0.130" stroke-width="0.6"/>
<line x1="476.1" y1="172.2" x2="477.2" y2="163.3" stroke="#EDE9E1" stroke-opacity="0.300" stroke-width="1.1"/>
<line x1="497.0" y1="171.0" x2="498.0" y2="167.1" stroke="#EDE9E1" stroke-opacity="0.130" stroke-width="0.6"/>
<line x1="516.8" y1="177.1" x2="518.2" y2="173.4" stroke="#EDE9E1" stroke-opacity="0.130" stroke-width="0.6"/>
<line x1="535.7" y1="185.6" x2="537.6" y2="182.1" stroke="#EDE9E1" stroke-opacity="0.130" stroke-width="0.6"/>
<line x1="553.4" y1="196.4" x2="555.7" y2="193.1" stroke="#EDE9E1" stroke-opacity="0.130" stroke-width="0.6"/>
<line x1="566.4" y1="212.9" x2="572.4" y2="206.1" stroke="#EDE9E1" stroke-opacity="0.300" stroke-width="1.1"/>
<line x1="584.4" y1="223.8" x2="587.4" y2="221.1" stroke="#EDE9E1" stroke-opacity="0.130" stroke-width="0.6"/>
<line x1="597.1" y1="240.1" x2="600.4" y2="237.8" stroke="#EDE9E1" stroke-opacity="0.130" stroke-width="0.6"/>
<line x1="607.9" y1="257.8" x2="611.4" y2="255.9" stroke="#EDE9E1" stroke-opacity="0.130" stroke-width="0.6"/>
<line x1="616.4" y1="276.7" x2="620.1" y2="275.3" stroke="#EDE9E1" stroke-opacity="0.130" stroke-width="0.6"/>
<line x1="617.7" y1="297.7" x2="626.4" y2="295.5" stroke="#EDE9E1" stroke-opacity="0.300" stroke-width="1.1"/>
<line x1="626.2" y1="316.8" x2="630.2" y2="316.3" stroke="#EDE9E1" stroke-opacity="0.130" stroke-width="0.6"/>
<circle cx="456" cy="337.5" r="270.0" fill="none" stroke="#EDE9E1" stroke-opacity="0.110" stroke-width="1"/>
<line x1="717.0" y1="337.5" x2="726.0" y2="337.5" stroke="#EDE9E1" stroke-opacity="0.300" stroke-width="1.1"/>
<line x1="721.2" y1="358.6" x2="725.1" y2="359.0" stroke="#EDE9E1" stroke-opacity="0.130" stroke-width="0.6"/>
<line x1="718.6" y1="379.6" x2="722.6" y2="380.3" stroke="#EDE9E1" stroke-opacity="0.130" stroke-width="0.6"/>
<line x1="714.5" y1="400.4" x2="718.4" y2="401.3" stroke="#EDE9E1" stroke-opacity="0.130" stroke-width="0.6"/>
<line x1="708.7" y1="420.7" x2="712.5" y2="422.0" stroke="#EDE9E1" stroke-opacity="0.130" stroke-width="0.6"/>
<line x1="696.6" y1="438.6" x2="704.9" y2="442.1" stroke="#EDE9E1" stroke-opacity="0.300" stroke-width="1.1"/>
<line x1="692.3" y1="459.7" x2="695.8" y2="461.5" stroke="#EDE9E1" stroke-opacity="0.130" stroke-width="0.6"/>
<line x1="681.8" y1="478.1" x2="685.2" y2="480.2" stroke="#EDE9E1" stroke-opacity="0.130" stroke-width="0.6"/>
<line x1="669.9" y1="495.6" x2="673.2" y2="497.9" stroke="#EDE9E1" stroke-opacity="0.130" stroke-width="0.6"/>
<line x1="656.7" y1="512.1" x2="659.7" y2="514.7" stroke="#EDE9E1" stroke-opacity="0.130" stroke-width="0.6"/>
<line x1="638.7" y1="523.9" x2="645.0" y2="530.3" stroke="#EDE9E1" stroke-opacity="0.300" stroke-width="1.1"/>
<line x1="626.5" y1="541.6" x2="629.1" y2="544.7" stroke="#EDE9E1" stroke-opacity="0.130" stroke-width="0.6"/>
<line x1="609.8" y1="554.5" x2="612.1" y2="557.8" stroke="#EDE9E1" stroke-opacity="0.130" stroke-width="0.6"/>
<line x1="592.0" y1="566.1" x2="594.1" y2="569.5" stroke="#EDE9E1" stroke-opacity="0.130" stroke-width="0.6"/>
<line x1="573.5" y1="576.2" x2="575.2" y2="579.8" stroke="#EDE9E1" stroke-opacity="0.130" stroke-width="0.6"/>
<line x1="552.3" y1="580.1" x2="555.6" y2="588.5" stroke="#EDE9E1" stroke-opacity="0.300" stroke-width="1.1"/>
<line x1="534.2" y1="591.8" x2="535.3" y2="595.6" stroke="#EDE9E1" stroke-opacity="0.130" stroke-width="0.6"/>
<line x1="513.7" y1="597.2" x2="514.6" y2="601.1" stroke="#EDE9E1" stroke-opacity="0.130" stroke-width="0.6"/>
<line x1="492.9" y1="600.9" x2="493.5" y2="604.9" stroke="#EDE9E1" stroke-opacity="0.130" stroke-width="0.6"/>
<line x1="471.9" y1="603.0" x2="472.1" y2="607.0" stroke="#EDE9E1" stroke-opacity="0.130" stroke-width="0.6"/>
<line x1="450.8" y1="598.4" x2="450.6" y2="607.4" stroke="#EDE9E1" stroke-opacity="0.300" stroke-width="1.1"/>
<line x1="429.6" y1="602.2" x2="429.2" y2="606.2" stroke="#EDE9E1" stroke-opacity="0.130" stroke-width="0.6"/>
<line x1="408.7" y1="599.3" x2="407.9" y2="603.2" stroke="#EDE9E1" stroke-opacity="0.130" stroke-width="0.6"/>
<line x1="388.0" y1="594.7" x2="387.0" y2="598.5" stroke="#EDE9E1" stroke-opacity="0.130" stroke-width="0.6"/>
<line x1="367.8" y1="588.4" x2="366.5" y2="592.2" stroke="#EDE9E1" stroke-opacity="0.130" stroke-width="0.6"/>
<line x1="350.2" y1="576.1" x2="346.5" y2="584.3" stroke="#EDE9E1" stroke-opacity="0.300" stroke-width="1.1"/>
<line x1="329.2" y1="571.3" x2="327.2" y2="574.8" stroke="#EDE9E1" stroke-opacity="0.130" stroke-width="0.6"/>
<line x1="311.0" y1="560.5" x2="308.8" y2="563.8" stroke="#EDE9E1" stroke-opacity="0.130" stroke-width="0.6"/>
<line x1="293.7" y1="548.3" x2="291.3" y2="551.4" stroke="#EDE9E1" stroke-opacity="0.130" stroke-width="0.6"/>
<line x1="277.5" y1="534.7" x2="274.8" y2="537.7" stroke="#EDE9E1" stroke-opacity="0.130" stroke-width="0.6"/>
<line x1="266.0" y1="516.5" x2="259.5" y2="522.6" stroke="#EDE9E1" stroke-opacity="0.300" stroke-width="1.1"/>
<line x1="248.5" y1="503.9" x2="245.4" y2="506.4" stroke="#EDE9E1" stroke-opacity="0.130" stroke-width="0.6"/>
<line x1="235.9" y1="486.9" x2="232.6" y2="489.2" stroke="#EDE9E1" stroke-opacity="0.130" stroke-width="0.6"/>
<line x1="224.8" y1="469.0" x2="221.3" y2="470.9" stroke="#EDE9E1" stroke-opacity="0.130" stroke-width="0.6"/>
<line x1="215.0" y1="450.2" x2="211.4" y2="451.9" stroke="#EDE9E1" stroke-opacity="0.130" stroke-width="0.6"/>
<line x1="211.5" y1="428.9" x2="203.1" y2="432.1" stroke="#EDE9E1" stroke-opacity="0.300" stroke-width="1.1"/>
<line x1="200.2" y1="410.6" x2="196.4" y2="411.7" stroke="#EDE9E1" stroke-opacity="0.130" stroke-width="0.6"/>
<line x1="195.2" y1="390.0" x2="191.3" y2="390.8" stroke="#EDE9E1" stroke-opacity="0.130" stroke-width="0.6"/>
<line x1="191.9" y1="369.2" x2="187.9" y2="369.6" stroke="#EDE9E1" stroke-opacity="0.130" stroke-width="0.6"/>
<line x1="190.2" y1="348.1" x2="186.2" y2="348.2" stroke="#EDE9E1" stroke-opacity="0.130" stroke-width="0.6"/>
<line x1="195.2" y1="327.1" x2="186.2" y2="326.8" stroke="#EDE9E1" stroke-opacity="0.300" stroke-width="1.1"/>
<line x1="191.9" y1="305.8" x2="187.9" y2="305.4" stroke="#EDE9E1" stroke-opacity="0.130" stroke-width="0.6"/>
<line x1="195.2" y1="285.0" x2="191.3" y2="284.2" stroke="#EDE9E1" stroke-opacity="0.130" stroke-width="0.6"/>
<line x1="200.2" y1="264.4" x2="196.4" y2="263.3" stroke="#EDE9E1" stroke-opacity="0.130" stroke-width="0.6"/>
<line x1="206.9" y1="244.3" x2="203.1" y2="242.9" stroke="#EDE9E1" stroke-opacity="0.130" stroke-width="0.6"/>
<line x1="219.6" y1="226.9" x2="211.4" y2="223.1" stroke="#EDE9E1" stroke-opacity="0.300" stroke-width="1.1"/>
<line x1="224.8" y1="206.0" x2="221.3" y2="204.1" stroke="#EDE9E1" stroke-opacity="0.130" stroke-width="0.6"/>
<line x1="235.9" y1="188.1" x2="232.6" y2="185.8" stroke="#EDE9E1" stroke-opacity="0.130" stroke-width="0.6"/>
<line x1="248.5" y1="171.1" x2="245.4" y2="168.6" stroke="#EDE9E1" stroke-opacity="0.130" stroke-width="0.6"/>
<line x1="262.4" y1="155.1" x2="259.5" y2="152.4" stroke="#EDE9E1" stroke-opacity="0.130" stroke-width="0.6"/>
<line x1="280.8" y1="144.0" x2="274.8" y2="137.3" stroke="#EDE9E1" stroke-opacity="0.300" stroke-width="1.1"/>
<line x1="293.7" y1="126.7" x2="291.3" y2="123.6" stroke="#EDE9E1" stroke-opacity="0.130" stroke-width="0.6"/>
<line x1="311.0" y1="114.5" x2="308.8" y2="111.2" stroke="#EDE9E1" stroke-opacity="0.130" stroke-width="0.6"/>
<line x1="329.2" y1="103.7" x2="327.2" y2="100.2" stroke="#EDE9E1" stroke-opacity="0.130" stroke-width="0.6"/>
<line x1="348.1" y1="94.4" x2="346.5" y2="90.7" stroke="#EDE9E1" stroke-opacity="0.130" stroke-width="0.6"/>
<line x1="369.4" y1="91.3" x2="366.5" y2="82.8" stroke="#EDE9E1" stroke-opacity="0.300" stroke-width="1.1"/>
<line x1="388.0" y1="80.3" x2="387.0" y2="76.5" stroke="#EDE9E1" stroke-opacity="0.130" stroke-width="0.6"/>
<line x1="408.7" y1="75.7" x2="407.9" y2="71.8" stroke="#EDE9E1" stroke-opacity="0.130" stroke-width="0.6"/>
<line x1="429.6" y1="72.8" x2="429.2" y2="68.8" stroke="#EDE9E1" stroke-opacity="0.130" stroke-width="0.6"/>
<line x1="450.7" y1="71.6" x2="450.6" y2="67.6" stroke="#EDE9E1" stroke-opacity="0.130" stroke-width="0.6"/>
<line x1="471.6" y1="77.0" x2="472.1" y2="68.0" stroke="#EDE9E1" stroke-opacity="0.300" stroke-width="1.1"/>
<line x1="492.9" y1="74.1" x2="493.5" y2="70.1" stroke="#EDE9E1" stroke-opacity="0.130" stroke-width="0.6"/>
<line x1="513.7" y1="77.8" x2="514.6" y2="73.9" stroke="#EDE9E1" stroke-opacity="0.130" stroke-width="0.6"/>
<line x1="534.2" y1="83.2" x2="535.3" y2="79.4" stroke="#EDE9E1" stroke-opacity="0.130" stroke-width="0.6"/>
<line x1="554.1" y1="90.3" x2="555.6" y2="86.5" stroke="#EDE9E1" stroke-opacity="0.130" stroke-width="0.6"/>
<line x1="571.2" y1="103.3" x2="575.2" y2="95.2" stroke="#EDE9E1" stroke-opacity="0.300" stroke-width="1.1"/>
<line x1="592.0" y1="108.9" x2="594.1" y2="105.5" stroke="#EDE9E1" stroke-opacity="0.130" stroke-width="0.6"/>
<line x1="609.8" y1="120.5" x2="612.1" y2="117.2" stroke="#EDE9E1" stroke-opacity="0.130" stroke-width="0.6"/>
<line x1="626.5" y1="133.4" x2="629.1" y2="130.3" stroke="#EDE9E1" stroke-opacity="0.130" stroke-width="0.6"/>
<line x1="642.2" y1="147.5" x2="645.0" y2="144.7" stroke="#EDE9E1" stroke-opacity="0.130" stroke-width="0.6"/>
<line x1="652.9" y1="166.2" x2="659.7" y2="160.3" stroke="#EDE9E1" stroke-opacity="0.300" stroke-width="1.1"/>
<line x1="669.9" y1="179.4" x2="673.2" y2="177.1" stroke="#EDE9E1" stroke-opacity="0.130" stroke-width="0.6"/>
<line x1="681.8" y1="196.9" x2="685.2" y2="194.8" stroke="#EDE9E1" stroke-opacity="0.130" stroke-width="0.6"/>
<line x1="692.3" y1="215.3" x2="695.8" y2="213.5" stroke="#EDE9E1" stroke-opacity="0.130" stroke-width="0.6"/>
<line x1="701.2" y1="234.5" x2="704.9" y2="232.9" stroke="#EDE9E1" stroke-opacity="0.130" stroke-width="0.6"/>
<line x1="703.9" y1="255.9" x2="712.5" y2="253.0" stroke="#EDE9E1" stroke-opacity="0.300" stroke-width="1.1"/>
<line x1="714.5" y1="274.6" x2="718.4" y2="273.7" stroke="#EDE9E1" stroke-opacity="0.130" stroke-width="0.6"/>
<line x1="718.6" y1="295.4" x2="722.6" y2="294.7" stroke="#EDE9E1" stroke-opacity="0.130" stroke-width="0.6"/>
<line x1="721.2" y1="316.4" x2="725.1" y2="316.0" stroke="#EDE9E1" stroke-opacity="0.130" stroke-width="0.6"/>
<circle cx="456" cy="337.5" r="175.5" fill="none" stroke="#D7000F" stroke-width="2.6" stroke-linecap="round" stroke-dasharray="121.3 1102.7" transform="rotate(90 456 337.5)"/>
<circle cx="221.4" cy="426.0" r="1.54" fill="#EDE9E1" fill-opacity="0.192"/>
<circle cx="673.5" cy="228.9" r="1.62" fill="#EDE9E1" fill-opacity="0.265"/>
<circle cx="345.5" cy="248.7" r="1.01" fill="#EDE9E1" fill-opacity="0.368"/>
<circle cx="320.1" cy="469.2" r="1.18" fill="#EDE9E1" fill-opacity="0.333"/>
<circle cx="417.0" cy="106.4" r="1.27" fill="#EDE9E1" fill-opacity="0.303"/>
<circle cx="576.1" cy="590.5" r="1.02" fill="#EDE9E1" fill-opacity="0.115"/>
<circle cx="266.0" cy="567.9" r="1.69" fill="#EDE9E1" fill-opacity="0.471"/>
<circle cx="622.5" cy="621.6" r="1.82" fill="#EDE9E1" fill-opacity="0.468"/>
<circle cx="526.6" cy="350.7" r="2.40" fill="#D7000F" fill-opacity="0.9"/>
<circle cx="1053.7" cy="274.9" r="0.93" fill="#EDE9E1" fill-opacity="0.447"/>
<circle cx="126.6" cy="517.8" r="0.99" fill="#EDE9E1" fill-opacity="0.455"/>
<circle cx="15.9" cy="499.6" r="1.52" fill="#EDE9E1" fill-opacity="0.297"/>
<circle cx="545.9" cy="587.8" r="0.94" fill="#EDE9E1" fill-opacity="0.400"/>
<circle cx="305.6" cy="304.7" r="1.06" fill="#EDE9E1" fill-opacity="0.247"/>
<circle cx="559.1" cy="70.0" r="0.71" fill="#EDE9E1" fill-opacity="0.311"/>
<circle cx="33.6" cy="280.2" r="1.17" fill="#EDE9E1" fill-opacity="0.304"/>
<circle cx="92.1" cy="36.7" r="1.53" fill="#EDE9E1" fill-opacity="0.371"/>
<circle cx="479.7" cy="573.3" r="0.72" fill="#EDE9E1" fill-opacity="0.450"/>
<circle cx="358.4" cy="505.7" r="1.91" fill="#EDE9E1" fill-opacity="0.203"/>
<circle cx="239.9" cy="445.9" r="1.86" fill="#EDE9E1" fill-opacity="0.186"/>
<circle cx="944.5" cy="86.6" r="1.23" fill="#EDE9E1" fill-opacity="0.190"/>
<circle cx="504.0" cy="479.6" r="2.00" fill="#EDE9E1" fill-opacity="0.187"/>
<circle cx="799.6" cy="590.7" r="1.76" fill="#EDE9E1" fill-opacity="0.205"/>
<circle cx="336.2" cy="392.5" r="1.55" fill="#EDE9E1" fill-opacity="0.286"/>
<circle cx="86.2" cy="620.5" r="0.91" fill="#EDE9E1" fill-opacity="0.161"/>
<circle cx="211.5" cy="586.7" r="1.78" fill="#EDE9E1" fill-opacity="0.218"/>
<circle cx="842.1" cy="247.7" r="1.23" fill="#EDE9E1" fill-opacity="0.219"/>
<circle cx="294.7" cy="133.4" r="0.75" fill="#EDE9E1" fill-opacity="0.353"/>
<circle cx="675.7" cy="357.9" r="1.73" fill="#EDE9E1" fill-opacity="0.219"/>
<circle cx="988.6" cy="84.1" r="1.07" fill="#EDE9E1" fill-opacity="0.407"/>
<circle cx="208.1" cy="260.9" r="1.67" fill="#EDE9E1" fill-opacity="0.431"/>
<circle cx="27.4" cy="364.5" r="1.61" fill="#EDE9E1" fill-opacity="0.240"/>
<circle cx="198.8" cy="168.7" r="1.32" fill="#EDE9E1" fill-opacity="0.349"/>
<circle cx="793.3" cy="318.5" r="1.13" fill="#EDE9E1" fill-opacity="0.283"/>
<circle cx="387.2" cy="650.1" r="1.04" fill="#EDE9E1" fill-opacity="0.228"/>
<circle cx="813.5" cy="596.2" r="2.40" fill="#D7000F" fill-opacity="0.9"/>
<circle cx="546.3" cy="578.0" r="1.48" fill="#EDE9E1" fill-opacity="0.108"/>
<circle cx="805.8" cy="302.2" r="1.35" fill="#EDE9E1" fill-opacity="0.262"/>
<circle cx="295.1" cy="41.0" r="1.85" fill="#EDE9E1" fill-opacity="0.266"/>
<circle cx="618.4" cy="20.3" r="0.86" fill="#EDE9E1" fill-opacity="0.148"/>
<circle cx="205.0" cy="104.0" r="1.15" fill="#EDE9E1" fill-opacity="0.128"/>
<circle cx="439.8" cy="263.7" r="2.16" fill="#EDE9E1" fill-opacity="0.160"/>
<circle cx="368.7" cy="534.3" r="1.93" fill="#EDE9E1" fill-opacity="0.162"/>
<circle cx="576.1" cy="357.7" r="0.77" fill="#EDE9E1" fill-opacity="0.353"/>
<circle cx="247.2" cy="89.5" r="1.99" fill="#EDE9E1" fill-opacity="0.117"/>
<circle cx="73.7" cy="160.6" r="0.88" fill="#EDE9E1" fill-opacity="0.241"/>
<circle cx="907.8" cy="561.7" r="0.79" fill="#EDE9E1" fill-opacity="0.121"/>
<circle cx="915.0" cy="664.9" r="1.58" fill="#EDE9E1" fill-opacity="0.107"/>
<circle cx="331.2" cy="331.0" r="2.09" fill="#EDE9E1" fill-opacity="0.193"/>
<circle cx="286.0" cy="42.3" r="0.71" fill="#EDE9E1" fill-opacity="0.127"/>
<circle cx="103.6" cy="64.6" r="1.55" fill="#EDE9E1" fill-opacity="0.386"/>
<circle cx="879.8" cy="626.5" r="1.65" fill="#EDE9E1" fill-opacity="0.459"/>
<circle cx="150.4" cy="77.4" r="0.89" fill="#EDE9E1" fill-opacity="0.167"/>
<circle cx="160.1" cy="491.2" r="1.01" fill="#EDE9E1" fill-opacity="0.276"/>
<circle cx="1063.8" cy="483.6" r="1.85" fill="#EDE9E1" fill-opacity="0.475"/>
<circle cx="330.2" cy="284.6" r="1.60" fill="#EDE9E1" fill-opacity="0.463"/>
<circle cx="403.9" cy="22.4" r="1.49" fill="#EDE9E1" fill-opacity="0.130"/>
<circle cx="895.0" cy="95.3" r="1.26" fill="#EDE9E1" fill-opacity="0.263"/>
<circle cx="298.2" cy="239.6" r="2.19" fill="#EDE9E1" fill-opacity="0.140"/>
<circle cx="187.8" cy="140.0" r="0.87" fill="#EDE9E1" fill-opacity="0.359"/>
<circle cx="131.6" cy="104.3" r="2.40" fill="#D7000F" fill-opacity="0.9"/>
<circle cx="904.9" cy="155.3" r="0.74" fill="#EDE9E1" fill-opacity="0.184"/>
<circle cx="193.9" cy="369.5" r="1.77" fill="#EDE9E1" fill-opacity="0.219"/>
<circle cx="777.9" cy="216.2" r="1.37" fill="#EDE9E1" fill-opacity="0.355"/>
<circle cx="40.3" cy="25.2" r="0.95" fill="#EDE9E1" fill-opacity="0.180"/>
<circle cx="852.1" cy="222.9" r="1.30" fill="#EDE9E1" fill-opacity="0.189"/>
<circle cx="899.0" cy="186.6" r="1.32" fill="#EDE9E1" fill-opacity="0.132"/>
<circle cx="946.4" cy="504.9" r="1.33" fill="#EDE9E1" fill-opacity="0.260"/>
<circle cx="973.6" cy="242.7" r="1.52" fill="#EDE9E1" fill-opacity="0.452"/>
<circle cx="909.2" cy="376.1" r="1.63" fill="#EDE9E1" fill-opacity="0.148"/>
<circle cx="897.1" cy="617.9" r="1.30" fill="#EDE9E1" fill-opacity="0.139"/>
<circle cx="424.4" cy="504.6" r="2.08" fill="#EDE9E1" fill-opacity="0.273"/>
<circle cx="292.1" cy="132.1" r="1.71" fill="#EDE9E1" fill-opacity="0.156"/>
<circle cx="307.7" cy="587.0" r="1.18" fill="#EDE9E1" fill-opacity="0.344"/>
<circle cx="410.5" cy="479.8" r="0.78" fill="#EDE9E1" fill-opacity="0.316"/>
<circle cx="763.0" cy="231.9" r="2.10" fill="#EDE9E1" fill-opacity="0.477"/>
<circle cx="622.6" cy="190.2" r="2.40" fill="#D7000F" fill-opacity="0.9"/>
<circle cx="583.4" cy="119.4" r="0.72" fill="#EDE9E1" fill-opacity="0.416"/>
<circle cx="491.7" cy="537.5" r="0.95" fill="#EDE9E1" fill-opacity="0.460"/>
<circle cx="810.1" cy="465.0" r="1.55" fill="#EDE9E1" fill-opacity="0.464"/>
<circle cx="550.3" cy="630.1" r="1.30" fill="#EDE9E1" fill-opacity="0.118"/>
<circle cx="355.9" cy="276.1" r="1.36" fill="#EDE9E1" fill-opacity="0.263"/>
<circle cx="395.4" cy="458.1" r="1.60" fill="#EDE9E1" fill-opacity="0.276"/>
<circle cx="575.2" cy="612.6" r="0.89" fill="#EDE9E1" fill-opacity="0.114"/>
<circle cx="555.6" cy="560.0" r="2.15" fill="#EDE9E1" fill-opacity="0.398"/>
<circle cx="458.1" cy="546.9" r="0.83" fill="#EDE9E1" fill-opacity="0.271"/>
<circle cx="491.8" cy="289.8" r="0.93" fill="#EDE9E1" fill-opacity="0.205"/>
<circle cx="196.0" cy="206.0" r="1.52" fill="#EDE9E1" fill-opacity="0.471"/>
<circle cx="680.9" cy="599.4" r="1.96" fill="#EDE9E1" fill-opacity="0.269"/>
<circle cx="936.8" cy="135.6" r="2.03" fill="#EDE9E1" fill-opacity="0.384"/>
<circle cx="808.7" cy="115.6" r="1.97" fill="#EDE9E1" fill-opacity="0.427"/>
<circle cx="700.4" cy="229.3" r="1.74" fill="#EDE9E1" fill-opacity="0.109"/>
<circle cx="671.6" cy="178.8" r="1.08" fill="#EDE9E1" fill-opacity="0.456"/>
<circle cx="773.7" cy="474.5" r="0.73" fill="#EDE9E1" fill-opacity="0.143"/>
<circle cx="131.1" cy="232.5" r="2.14" fill="#EDE9E1" fill-opacity="0.225"/>
<circle cx="51.3" cy="539.6" r="1.42" fill="#EDE9E1" fill-opacity="0.184"/>
<circle cx="24.5" cy="161.0" r="1.68" fill="#EDE9E1" fill-opacity="0.259"/>
<circle cx="747.4" cy="32.2" r="1.25" fill="#EDE9E1" fill-opacity="0.294"/>
<circle cx="92.6" cy="180.4" r="0.71" fill="#EDE9E1" fill-opacity="0.138"/>
<circle cx="680.6" cy="422.7" r="1.52" fill="#EDE9E1" fill-opacity="0.154"/>
<circle cx="654.4" cy="120.7" r="0.97" fill="#EDE9E1" fill-opacity="0.215"/>
<path d="M 1020 675 A 189 189 0 0 0 768 675" fill="none" stroke="#EDE9E1" stroke-opacity="0.045" stroke-width="0.8"/>
<path d="M 1028 675 A 213 213 0 0 0 744 675" fill="none" stroke="#EDE9E1" stroke-opacity="0.053" stroke-width="0.8"/>
<path d="M 1036 675 A 236 236 0 0 0 720 675" fill="none" stroke="#EDE9E1" stroke-opacity="0.061" stroke-width="0.8"/>
<path d="M 1044 675 A 260 260 0 0 0 696 675" fill="none" stroke="#EDE9E1" stroke-opacity="0.069" stroke-width="0.8"/>
<path d="M 1052 675 A 284 284 0 0 0 672 675" fill="none" stroke="#EDE9E1" stroke-opacity="0.077" stroke-width="0.8"/>
<path d="M 1060 675 A 307 307 0 0 0 648 675" fill="none" stroke="#EDE9E1" stroke-opacity="0.085" stroke-width="0.8"/>
<path d="M 1068 675 A 331 331 0 0 0 624 675" fill="none" stroke="#EDE9E1" stroke-opacity="0.093" stroke-width="0.8"/>
<line x1="430" y1="337.5" x2="482" y2="337.5" stroke="#EDE9E1" stroke-opacity="0.450" stroke-width="1"/>
<line x1="456" y1="311.5" x2="456" y2="363.5" stroke="#EDE9E1" stroke-opacity="0.450" stroke-width="1"/>
<circle cx="456" cy="337.5" r="18" fill="none" stroke="#D7000F" stroke-opacity="0.5" stroke-width="1.4"/>
<circle cx="456" cy="337.5" r="7" fill="#D7000F"/>
<text x="494" y="303.5" text-anchor="start" font-family="ui-monospace, Menlo, Consolas, monospace" fill="#D7000F" font-size="15" letter-spacing="4">TAX CLEARANCE · DONE</text>
<text x="494" y="325.5" text-anchor="start" font-family="ui-monospace, Menlo, Consolas, monospace" fill="#8D887F" font-size="13" letter-spacing="4">ORDERLY CLOSURE</text>
<text x="64" y="84" font-family="ui-monospace, Menlo, Consolas, monospace" fill="#8D887F" font-size="17" letter-spacing="4">MIRAI BIZLAB — CASE</text>
<line x1="64" y1="603" x2="118" y2="603" stroke="#D7000F" stroke-width="3"/>
<text x="132" y="609" font-family="ui-monospace, Menlo, Consolas, monospace" fill="#8D887F" font-size="16" letter-spacing="4">LIQUIDATION · CLOSURE</text>
<text x="1136" y="609" text-anchor="end" font-family="ui-monospace, Menlo, Consolas, monospace" fill="#8D887F" font-size="16" letter-spacing="4">CASE 07</text>
<rect width="1200" height="675" filter="url(#grain)" opacity="1"/>
</svg>