<svg xmlns="http://www.w3.org/2000/svg" viewBox="0 0 1200 750" width="1200" height="750" role="img" aria-label="CLINIC — medical clinic accounting"><defs><radialGradient id="g" cx="75%" cy="30%" r="80%"><stop offset="0" stop-color="#231A1E"/><stop offset="1" stop-color="#0F0D10"/></radialGradient></defs><rect width="1200" height="750" fill="url(#g)"/><path d="M75 0V750M150 0V750M225 0V750M300 0V750M375 0V750M450 0V750M525 0V750M600 0V750M675 0V750M750 0V750M825 0V750M900 0V750M975 0V750M1050 0V750M1125 0V750M0 75H1200M0 150H1200M0 225H1200M0 300H1200M0 375H1200M0 450H1200M0 525H1200M0 600H1200M0 675H1200" stroke="#fff" stroke-opacity="0.05" stroke-width="1" fill="none"/><text x="60" y="70" font-family="SFMono-Regular, Menlo, Consolas, monospace" font-size="15" font-weight="700" letter-spacing="3" fill="#fff" fill-opacity="0.75" >CASE 03</text><text x="1140" y="70" font-family="SFMono-Regular, Menlo, Consolas, monospace" font-size="15" font-weight="700" letter-spacing="3" fill="#fff" fill-opacity="0.75" text-anchor="end">MEDICAL CLINIC</text><g transform="translate(0,30)"><polyline points="640,290 760,290 800,290 830,200 870,380 910,250 940,290 1140,290" fill="none" stroke="#D7000F" stroke-width="4"/><circle cx="910" cy="250" r="9" fill="#D7000F"/><path d="M640 290H1140" stroke="#fff" stroke-opacity=".35"/></g><g transform="translate(0,60)"><text x="52" y="600" font-family="Helvetica Neue, Helvetica, Arial, sans-serif" font-weight="800" font-size="270" textLength="880" lengthAdjust="spacingAndGlyphs" fill="#fff"  fill-opacity="0.95">CLINIC</text></g><rect x="60" y="701" width="56" height="4" fill="#D7000F"/></svg>
