<svg xmlns="http://www.w3.org/2000/svg" viewBox="0 0 1200 675" width="1200" height="675" role="img" aria-label="Clinic cross and pulse, dramatic dark composition">
  <defs>
    <radialGradient id="r3bg" cx="60%" cy="30%" r="85%"><stop offset="0" stop-color="#241b16"/><stop offset="0.6" stop-color="#161210"/><stop offset="1" stop-color="#0d0b0a"/></radialGradient>
    <radialGradient id="r3gl" cx="62%" cy="30%" r="46%"><stop offset="0" stop-color="#d7000f" stop-opacity="0.4"/><stop offset="1" stop-color="#d7000f" stop-opacity="0"/></radialGradient>
  </defs>
  <rect width="1200" height="675" fill="url(#r3bg)"/>
  <g stroke="#d7000f" stroke-opacity="0.20" stroke-width="1.3"><line x1="600" y1="350" x2="120" y2="120"/><line x1="600" y1="350" x2="180" y2="560"/><line x1="600" y1="350" x2="1120" y2="140"/><line x1="600" y1="350" x2="1080" y2="600"/><line x1="600" y1="350" x2="600" y2="-40"/><line x1="600" y1="350" x2="40" y2="360"/><line x1="600" y1="350" x2="1180" y2="360"/></g>
  <rect width="1200" height="675" fill="url(#r3gl)"/>
  <text x="1150" y="604" text-anchor="end" font-family="ui-sans-serif,system-ui,sans-serif" font-weight="800" font-size="360" fill="#ffffff" fill-opacity="0.05" letter-spacing="-12">03</text>
  <circle cx="600" cy="330" r="150" fill="none" stroke="#f2ece4" stroke-width="3"/>
  <circle cx="600" cy="330" r="150" fill="none" stroke="#d7000f" stroke-width="4" stroke-linecap="round" stroke-dasharray="150 800" transform="rotate(40 600 330)"/>
  <circle cx="600" cy="330" r="220" fill="none" stroke="#ffffff" stroke-opacity="0.06" stroke-width="1.5"/>
  <!-- red cross -->
  <g stroke="#d7000f" stroke-width="20" stroke-linecap="round"><line x1="600" y1="276" x2="600" y2="384"/><line x1="546" y1="330" x2="654" y2="330"/></g>
  <!-- pulse line -->
  <polyline points="250,520 470,520 516,520 552,456 592,576 632,492 672,520 950,520" fill="none" stroke="#f2ece4" stroke-width="3.5" stroke-linecap="round" stroke-linejoin="round" stroke-opacity="0.85"/>
  <circle cx="950" cy="520" r="8" fill="#d7000f"/>
  <text x="64" y="80" font-family="ui-monospace, 'SFMono-Regular', Menlo, monospace" fill="#b8b0a6" font-size="20" letter-spacing="3">MIRAI BIZLAB — CASE</text>
  <line x1="64" y1="600" x2="112" y2="600" stroke="#d7000f" stroke-width="3"/>
  <text x="124" y="606" font-family="ui-monospace, 'SFMono-Regular', Menlo, monospace" fill="#b8b0a6" font-size="19" letter-spacing="3">CLINIC · ACCOUNTING</text>
</svg>
