<svg xmlns="http://www.w3.org/2000/svg" viewBox="0 0 1200 675" width="1200" height="675" role="img" aria-label="Cloud dashboard rising trend, dramatic dark composition">
  <defs>
    <radialGradient id="r5bg" cx="55%" cy="28%" r="85%"><stop offset="0" stop-color="#241b16"/><stop offset="0.6" stop-color="#161210"/><stop offset="1" stop-color="#0d0b0a"/></radialGradient>
    <radialGradient id="r5gl" cx="58%" cy="26%" r="46%"><stop offset="0" stop-color="#d7000f" stop-opacity="0.4"/><stop offset="1" stop-color="#d7000f" stop-opacity="0"/></radialGradient>
  </defs>
  <rect width="1200" height="675" fill="url(#r5bg)"/>
  <g stroke="#d7000f" stroke-opacity="0.20" stroke-width="1.3"><line x1="600" y1="350" x2="120" y2="120"/><line x1="600" y1="350" x2="180" y2="560"/><line x1="600" y1="350" x2="1120" y2="140"/><line x1="600" y1="350" x2="1080" y2="600"/><line x1="600" y1="350" x2="600" y2="-40"/><line x1="600" y1="350" x2="40" y2="360"/><line x1="600" y1="350" x2="1180" y2="360"/></g>
  <rect width="1200" height="675" fill="url(#r5gl)"/>
  <text x="1150" y="604" text-anchor="end" font-family="ui-sans-serif,system-ui,sans-serif" font-weight="800" font-size="360" fill="#ffffff" fill-opacity="0.05" letter-spacing="-12">05</text>
  <!-- cloud -->
  <g transform="translate(600 150)" fill="none" stroke="#f2ece4" stroke-width="3" stroke-linecap="round" stroke-linejoin="round" stroke-opacity="0.7"><path d="M-104 38 a38 38 0 0 1 15 -74 a55 55 0 0 1 106 -9 a42 42 0 0 1 27 83 Z"/></g>
  <g fill="#f2ece4" fill-opacity="0.4"><circle cx="600" cy="214" r="4"/><circle cx="600" cy="236" r="4"/></g>
  <!-- monitor -->
  <rect x="418" y="262" width="364" height="226" rx="14" fill="none" stroke="#f2ece4" stroke-width="3"/>
  <line x1="540" y1="488" x2="660" y2="488" stroke="#f2ece4" stroke-width="3" stroke-linecap="round"/>
  <line x1="448" y1="448" x2="752" y2="448" stroke="#f2ece4" stroke-opacity="0.3" stroke-width="2"/>
  <g fill="#f2ece4" fill-opacity="0.18"><rect x="462" y="402" width="34" height="46"/><rect x="514" y="378" width="34" height="70"/><rect x="566" y="400" width="34" height="48"/></g>
  <polyline points="452,416 514,394 574,402 638,352 714,314" fill="none" stroke="#d7000f" stroke-width="4" stroke-linecap="round" stroke-linejoin="round"/>
  <circle cx="714" cy="314" r="9" fill="#d7000f"/><circle cx="714" cy="314" r="20" fill="none" stroke="#d7000f" stroke-opacity="0.4" stroke-width="2"/>
  <text x="64" y="80" font-family="ui-monospace, 'SFMono-Regular', Menlo, monospace" fill="#b8b0a6" font-size="20" letter-spacing="3">MIRAI BIZLAB — CASE</text>
  <line x1="64" y1="600" x2="112" y2="600" stroke="#d7000f" stroke-width="3"/>
  <text x="124" y="606" font-family="ui-monospace, 'SFMono-Regular', Menlo, monospace" fill="#b8b0a6" font-size="19" letter-spacing="3">CLOUD · PEAK</text>
</svg>
