<svg xmlns="http://www.w3.org/2000/svg" viewBox="0 0 1200 675" width="1200" height="675" role="img" aria-label="Multi-outlet dining concept, dramatic dark composition">
  <defs>
    <radialGradient id="r1bg" cx="64%" cy="30%" r="85%"><stop offset="0" stop-color="#241b16"/><stop offset="0.6" stop-color="#161210"/><stop offset="1" stop-color="#0d0b0a"/></radialGradient>
    <radialGradient id="r1gl" cx="70%" cy="30%" r="46%"><stop offset="0" stop-color="#d7000f" stop-opacity="0.42"/><stop offset="1" stop-color="#d7000f" stop-opacity="0"/></radialGradient>
  </defs>
  <rect width="1200" height="675" fill="url(#r1bg)"/>
  <g stroke="#d7000f" stroke-opacity="0.20" stroke-width="1.3"><line x1="600" y1="350" x2="120" y2="120"/><line x1="600" y1="350" x2="180" y2="560"/><line x1="600" y1="350" x2="1120" y2="140"/><line x1="600" y1="350" x2="1080" y2="600"/><line x1="600" y1="350" x2="600" y2="-40"/><line x1="600" y1="350" x2="40" y2="360"/><line x1="600" y1="350" x2="1180" y2="360"/></g>
  <rect width="1200" height="675" fill="url(#r1gl)"/>
  <text x="1150" y="604" text-anchor="end" font-family="ui-sans-serif,system-ui,sans-serif" font-weight="800" font-size="360" fill="#ffffff" fill-opacity="0.05" letter-spacing="-12">01</text>
  <circle cx="600" cy="350" r="220" fill="none" stroke="#ffffff" stroke-opacity="0.07" stroke-width="1.5"/>
  <circle cx="600" cy="350" r="300" fill="none" stroke="#ffffff" stroke-opacity="0.05" stroke-width="1.5"/>
  <circle cx="600" cy="350" r="150" fill="none" stroke="#f2ece4" stroke-width="3"/>
  <circle cx="600" cy="350" r="150" fill="none" stroke="#d7000f" stroke-width="4" stroke-linecap="round" stroke-dasharray="150 800" transform="rotate(-60 600 350)"/>
  <circle cx="600" cy="350" r="112" fill="none" stroke="#f2ece4" stroke-opacity="0.3" stroke-width="1.5"/>
  <g stroke-linecap="round" stroke-width="4" fill="none"><g stroke="#f2ece4"><line x1="692" y1="276" x2="692" y2="424"/><path d="M678 312 q14 16 28 0"/></g><line x1="508" y1="276" x2="508" y2="424" stroke="#d7000f"/></g>
  <g><circle cx="470" cy="150" r="9" fill="#f2ece4"/><circle cx="600" cy="120" r="12" fill="#d7000f"/><circle cx="600" cy="120" r="24" fill="none" stroke="#d7000f" stroke-opacity="0.4" stroke-width="2"/><circle cx="730" cy="150" r="9" fill="#f2ece4"/></g>
  <text x="64" y="80" font-family="ui-monospace, 'SFMono-Regular', Menlo, monospace" fill="#b8b0a6" font-size="20" letter-spacing="3">MIRAI BIZLAB — CASE</text>
  <line x1="64" y1="600" x2="112" y2="600" stroke="#d7000f" stroke-width="3"/>
  <text x="124" y="606" font-family="ui-monospace, 'SFMono-Regular', Menlo, monospace" fill="#b8b0a6" font-size="19" letter-spacing="3">F&amp;B · MULTI-OUTLET</text>
</svg>
