<?xml version="1.0" encoding="UTF-8"?>
<svg id="_レイヤー_1" xmlns="http://www.w3.org/2000/svg" version="1.1" viewBox="0 0 155.91 155.91">
  <!-- Generator: Adobe Illustrator 30.1.0, SVG Export Plug-In . SVG Version: 2.1.1 Build 136)  -->
  <defs>
    <style>
      .st0 {
        fill: #e60012;
      }
    </style>
  </defs>
  <path class="st0" d="M124.76,34.08c.63.35,1.19.63,1.71.95,1.04.62,1.88,1.37,2.3,2.36.38.89.91,1.73,1.66,2.48.17.16.26.36.38.54-.26.73-.64,1.39-1.1,2.02-.33.45-.73.88-1.02,1.34-.61.95-2.19,1.38-3.53.94-1.32-.43-2.57-.88-3.8-1.45-1.79-.84-3.58-1.67-5.27-2.64-.5-.29-1.05-.55-1.62-.7-.79-.19-1.46-.49-2.07-.9-.73-.48-1.56-.8-2.51-.92-1.75-.22-3.34.18-4.78.92-.26.13-.47.33-.61.53-.49.66-1.23,1.08-2.03,1.47-.41.2-.86.37-1.28.57-.74.34-1.38.77-1.79,1.37-.65.96-1.65,1.62-2.85,2.12-1.14.48-2.21,1.02-3.18,1.7-.66.47-1.47.76-2.31,1.01-.66.19-1.32.41-1.97.62-.7.22-1.39.46-2.1.65-1.25.34-2.26.95-3.15,1.7-.5.43-.64.99-.65,1.55-.03,1.01-.05,2.02,0,3.02.15,3.4.33,6.8.52,10.2.04.76.19,1.52.22,2.28.04,1.01.04,2.01,0,3.02-.03,1.15.09,2.29.2,3.43.17,1.6.43,3.18.84,4.74.38,1.46.87,2.91,1.28,4.36.2.72.66,1.27,1.42,1.7.9.51,1.74,1.07,2.37,1.82.23.28.58.43.96.53.65.16,1.16.49,1.66.84.66.46,1.32.92,1.98,1.38,1.42.97,3.08,1.64,4.68,2.37.77.35,1.5.73,2.17,1.19.6.41,1.19.84,1.85,1.17.78.4,1.6.77,2.54.87.52.06.91.26,1.2.59.79.88,1.87,1.57,2.81,2.34.27.22.54.46.74.73.33.44.78.75,1.37.95.96.33,1.74.82,2.33,1.51.17.2.4.4.65.51.79.34,1.34.92,2.07,1.29,1.06.55,1.8,1.3,2.58,2.05.73.69,1.57,1.32,2.42,1.92.72.51,1.19,1.03,1.36,1.83.22,1.03.86,2,1.75,2.77,1.21,1.05,1.44,2.36,1.83,3.63.18.59-.43,1.23-1.24,1.43-.68.17-1.37.32-2.06.41-1.46.19-2.75-.23-3.82-.93-.83-.54-1.69-1.01-2.62-1.41-.75-.32-1.46-.66-1.69-1.39-.13-.4-.56-.66-1.02-.76-1.6-.35-2.44-1.31-3.23-2.34-.23-.3-.47-.59-.73-.87-.38-.44-.88-.78-1.48-1.02-1.7-.68-3.31-1.46-5.08-2.05-1.66-.56-3.2-1.35-4.78-2.04-.54-.23-1.09-.5-1.66-.63-1.34-.31-2.53-.83-3.7-1.4-.6-.29-1.21-.58-1.84-.82-.88-.34-1.75-.67-2.51-1.17-.2-.13-.42-.25-.65-.36-1.6-.74-3.4-.15-3.86,1.25-.09.27-.15.54-.18.82-.24,2.58,0,5.13.77,7.65.2.67.54,1.32,1,1.92.38.51.79.96,1.52,1.26.83.34,1.47.9,1.75,1.64.43,1.15,1.47,1.86,2.72,2.46.52.25,1.09.51,1.47.87,1.13,1.06,2.66,1.6,4.18,2.16.56.21,1.15.37,1.7.6.55.22,1.06.49,1.59.75,1.15.58,2.28,1.2,3.47,1.73.68.31,1.47.48,2.21.7.5.15.98.29,1.37.61.27.22.61.4.93.59.49.29.98.57,1.41.94.37.32.92.53,1.42.74.4.17.63.41.63.74.01,1.08,0,2.15-.01,3.23,0,.36-.2.67-.55.92-.56.4-1.11.8-1.68,1.19-.13.09-.27.19-.43.24-.28.09-.59.14-.9.21-.29-.13-.55-.26-.83-.36-.43-.16-.88-.3-1.34-.43-.58-.17-1.18-.29-1.75-.48-1.3-.43-2.6-.9-3.9-1.33-.66-.22-1.32-.43-1.8-.86-.69-.62-1.61-.83-2.62-.88-.18,0-.36-.02-.54-.02-1.05,0-2.02-.19-2.93-.59-1.06-.46-2.2-.71-3.4-.86-.83-.1-1.64-.31-2.45-.47-.43-.08-.86-.18-1.3-.19-.87-.02-1.23.23-1.25.91-.04.73-.01,1.46,0,2.19.04,1.11.09,2.22.15,3.33.04.66.15,1.31.17,1.97.03.86,0,1.73,0,2.59.01.93.05,1.87.09,2.8.03.66.06,1.32.05,1.98,0,.59-.15,1.16-.47,1.72-.4.7-.74,1.41-1.02,2.14-.42,1.12-1.38,1.93-2.4,2.7-.23.17-.63.25-.96.3-1.36.2-2.71.37-4.07.55-.65.09-1.32.16-1.97.25-.82.1-1.48-.13-2.05-.58-.24-.2-.5-.4-.68-.64-.75-1.04-1.28-2.12-1.27-3.34,0-.79.09-1.58-.08-2.37-.05-.24-.05-.49,0-.73.23-1.14.1-2.28.04-3.42-.08-1.21-.06-2.43-.09-3.64,0-.45,0-.91-.06-1.35-.17-1.1-.29-2.21-.27-3.32.01-.48-.18-.96-.27-1.44-.23-1.28-.29-2.56-.24-3.84.03-.54-.24-.84-.86-1.04-.79-.25-1.6-.41-2.44-.5-.55-.06-1.05.08-1.55.24-.9.3-1.82.55-2.76.74-.55.11-1.05.37-1.55.59-.96.42-1.83.97-2.93,1.21-.45.1-.84.37-1.23.61-.61.37-1.28.62-2.05.71-.35.04-.69.13-1.04.17-.91.1-1.7.42-2.35.91-.63.48-1.37.71-2.24.83-1.62.21-3.18.61-4.71,1.11-.7.24-1.42.32-2.2.29-1.94-.06-2.92-1.04-3.66-2.24-.29-.47.04-1.14.66-1.45.72-.35,1.44-.67,2.17-1.02.27-.13.58-.23.77-.41.65-.58,1.37-1.08,2.19-1.5.23-.12.35-.39.46-.6.09-.16.1-.34.15-.5.15-.49.56-.83,1.18-.88,1.21-.09,2.15-.58,3.07-1.14,1.02-.61,2.1-1.17,3.13-1.76.72-.41,1.46-.81,2.1-1.28,1.19-.86,2.58-1.46,3.95-2.09,1.88-.86,3.8-1.65,5.52-2.69.81-.49,1.73-.86,2.58-1.28.38-.18.75-.36,1.14-.53.88-.4,1.3-1.01,1.39-1.79.06-.59.14-1.18.17-1.77.12-2.46.24-4.93.29-7.39.01-.66.22-1.22.74-1.73.24-.24.45-.52.58-.8.17-.36.01-.67-.38-.92-.68-.42-1.44-.52-2.26-.4-.47.07-.96.19-1.38.35-1.59.63-3.15,1.29-4.72,1.92-.73.29-1.32.7-1.82,1.2-.55.55-1.24.98-1.94,1.41-.84.51-1.64,1.06-2.43,1.62-1.02.72-2.01,1.47-3.02,2.2-.06.05-.13.1-.2.14-.93.49-1.39,1.37-2.43,1.76-1,.37-1.66,1.03-2.51,1.54-.63.38-1.29.73-1.97,1.06-.58.28-1.11.58-1.39,1.08-.23.41-.66.65-1.13.85-2.16.95-4.32,1.92-6.51,2.84-.74.31-1.53.55-2.33.75-.61.15-1.15.36-1.56.75-.5.47-1.16.73-1.87.96-1.36.43-2.7.89-4.03,1.36-1.42.5-2.85.96-4.37,1.24-.74.14-1.5.18-2.24,0-1.15-.29-1.75-.94-1.73-1.87.01-.49.19-.95.51-1.38.51-.67,1.18-1.22,1.93-1.71,1.02-.67,2.05-1.34,3.07-2,.14-.09.27-.19.42-.25.86-.31,1.56-.75,2.11-1.38.2-.24.61-.4.95-.56.73-.34,1.42-.7,1.87-1.29.26-.34.68-.55,1.16-.67,1.2-.31,2.21-.87,3.27-1.37.77-.37,1.27-.98,1.96-1.39.69-.41,1.59-.62,2.24-1.1,1.13-.84,2.28-1.66,3.32-2.55,1.29-1.1,2.53-2.23,4.12-3.09.26-.14.47-.32.68-.5,1.32-1.23,2.88-2.27,4.33-3.38.22-.17.46-.33.73-.45.56-.25.98-.58,1.25-1.04.24-.44.72-.7,1.24-.91.84-.33,1.6-.74,2.21-1.31.19-.18.46-.32.69-.49,2.31-1.63,4.62-3.25,6.93-4.88.86-.61,1.69-1.21,2.84-1.5.87-.22,1.48-.69,1.6-1.51.05-.42.38-.85.69-1.22,1.16-1.4,1.76-2.95,2.06-4.58.04-.24.04-.49.01-.73-.23-1.8-.27-3.6-.23-5.41.03-.87.14-1.73.26-2.59.1-.73.05-1.44-.06-2.17-.14-.96-.12-1.94-.03-2.91.27-2.78.13-5.55-.06-8.33-.01-.26-.17-.55-.38-.75-1.43-1.37-2.85-2.76-4.81-3.72-.29-.14-.56-.34-.81-.54-1.27-1.03-2.65-1.95-4.22-2.69-.23-.11-.49-.21-.63-.38-.4-.45-.92-.74-1.52-.98-.52-.21-.97-.49-1.28-.89-.12-.15-.24-.33-.42-.39-1.2-.41-1.96-1.3-3.16-1.71-.36-.12-.69-.32-.97-.53-.74-.57-1.6-1.01-2.52-1.34-.75-.27-1.34-.66-1.92-1.1-.96-.73-1.92-1.45-2.89-2.16-.32-.24-.69-.44-1.05-.64-1.07-.57-2.19-.52-3.16.12-.24.16-.46.34-.73.45-.81.35-1.41.8-1.75,1.5-.14.29-.55.53-.91.72-.63.35-1.13.76-1.53,1.28-.73.92-1.74,1.56-3.11,1.83-.69.14-1.36.32-2.05.47-.92.2-1.37.06-1.62-.64-.31-.83-.5-1.69-.31-2.57.29-1.37.63-2.73,1.66-3.92.33-.38.38-.84.43-1.29.05-.44.19-.88.27-1.33.09-.55.2-1.1.23-1.65.06-1.07.17-2.15.08-3.22-.08-.87-.04-1.73.08-2.59.18-1.36.72-2.64,1.62-3.82.83-1.1,2.08-1.67,3.67-1.83,1.71-.17,3.35.04,4.88.7,1.01.43,2.03.87,3.11,1.18,1.19.34,2.03.96,2.84,1.66.29.26.59.53.82.82.42.53,1,.88,1.79.99.66.09,1.15.36,1.47.81.5.68,1.25,1.17,1.98,1.66,1.34.91,2.72,1.78,4.08,2.68.31.2.56.45.86.66.33.23.64.5,1.04.64.93.34,1.59.89,2.07,1.56.55.75,1.3,1.3,2.33,1.64.37.12.69.31,1.06.44,1.04.38,2.31.15,2.99-.56.13-.13.23-.32.23-.47,0-.45,0-.91-.13-1.34-.24-.73-.2-1.43-.08-2.17.13-.72.15-1.45.14-2.18-.01-.98.05-1.93.45-2.88.22-.52.28-1.09.36-1.64.28-2.14.6-4.28,1.21-6.38.28-.98.23-1.93-.55-2.79-.47-.52-.47-1.11-.38-1.7.18-1.08.06-2.15-.17-3.2-.23-1.06.09-1.9,1.25-2.54.96-.52,1.61-1.29,2.35-1.97.12-.1.19-.23.29-.35.61-.71,1.46-1.07,2.57-1.08,2.48-.03,4.87.24,7.13,1.06.77.28,1.48.62,2.05,1.13.56.5,1.25.88,2.01,1.19.83.34,1.57.77,2.25,1.28,1.21.91,2.49,1.77,3.86,2.54.36.2.65.45.92.73.59.6,1.23,1.19,1.93,1.72,1.25.96,2.22,2.08,3.02,3.29.38.59.78,1.17,1.34,1.67.47.42.5.85.24,1.35-.63,1.21-1.73,2-3.3,2.39-.24.06-.52.1-.78.08-1.82-.14-3.57-.51-5.24-1.09-.17-.06-.33-.12-.46-.2-.5-.33-1.06-.45-1.71-.47-1.27-.02-2.26-.57-3.23-1.11-1.02-.58-1.75-.61-2.76-.05-.93.52-1.38,1.23-1.44,2.13-.08,1.32-.17,2.64-.28,3.95-.09,1-.15,2.02-.83,2.92-.18.23-.09.46-.03.7.33,1.22.65,2.45.97,3.67.24.92.46,1.84.7,2.75.1.37.22.75.38,1.11.47,1.02,1.74,1.35,2.92.76.41-.2.75-.48,1.13-.73.56-.4,1.16-.75,1.93-.89,1.37-.23,2.35-.93,3.31-1.67,1.38-1.08,2.76-2.15,4.48-2.92.65-.3,1.3-.59,1.91-.94.42-.24.81-.54,1.13-.87.41-.42.86-.82,1.47-1.04,1.27-.44,2.33-1.13,3.39-1.8,1.01-.64,2.1-1.16,3.22-1.64.47-.2.91-.41,1.1-.85.13-.31.47-.48.87-.59,1.04-.29,2.05-.69,3.12-.88.64-.12,1.38-.15,2.06.16,1.07.5,2.12.99,2.89,1.8.31.33.77.57,1.13.87.51.43,1.07.84,1.48,1.32.58.67,1.21,1.28,1.98,1.82.52.37,1.04.76,1.55,1.15.55.43.93.92,1,1.54.04.34.18.68.28,1.06l.06.08Z"/>
  <path class="st0" d="M119.79,75.25c.12,1.33.41,2.62.74,3.91.45,1.72.42,3.44-.04,5.17-.22.82-.37,1.64-.6,2.45-.37,1.29-1.02,2.51-1.84,3.67-.36.51-.83.98-1.24,1.47-.19.23-.37.47-.5.72-.32.61-.59,1.24-.92,1.84-.28.51-.65.99-1.29,1.29-.33.16-.65.19-1,.05-.7-.3-1.36-.67-1.8-1.21-.51-.61-1.01-1.23-1.46-1.86-.14-.2-.19-.46-.2-.69,0-.31.06-.62.14-.93.15-.55.1-1.1,0-1.66-.31-1.89-.56-3.79-.92-5.68-.18-.96-.2-1.92-.52-2.87-.51-1.5-1.39-2.84-2.56-4.08-.49-.52-1.11-.89-1.76-1.25-1.27-.71-2.58-1.35-3.7-2.22-.32-.24-.6-.51-.93-.74-.32-.23-.65-.48-1.05-.62-.56-.19-.96-.5-1.27-.88-.27-.34-.65-.58-1.13-.69-1.38-.31-2.43-1-3.36-1.79-.45-.38-.91-.64-1.56-.7-.13-.01-.26-.07-.38-.09-1.01-.12-1.38-.67-1.53-1.37-.1-.53.09-.96.69-1.26.45-.22.9-.45,1.34-.67.45-.23.9-.45,1.33-.68,1-.54,2.08-.86,3.31-.97,1.46-.12,2.92-.19,4.39-.15,1.04.03,2.03.15,2.9.63.73.4,1.5.18,1.83-.46.13-.26.23-.52.29-.79.23-1.07.26-2.14.12-3.22-.26-1.9-.52-3.79-.74-5.69-.12-.93-.19-1.87-.19-2.8,0-.48.17-.96.33-1.42.15-.42.52-.73,1.1-.82.74-.11,1.28-.42,1.71-.9.38-.43.96-.57,1.62-.58,1.48-.02,2.8.28,3.93,1.07.73.51,1.48.99,2.26,1.45.52.31.84.7.96,1.2.13.55.26,1.09.41,1.63.46,1.59.91,3.18,1.41,4.77.24.78.45,1.57.38,2.37-.13,1.36.7,2.24,2.16,2.85.12.05.24.09.35.15,1.68.85,3.3.39,4.32-.52.65-.58,1.41-.93,2.3-1.16.2-.05.42-.11.6-.21,1.1-.63,2.39-.88,3.71-1.06,2.12-.3,2.58-.17,3.81.87.18.15.45.23.63.39.29.26.66.52.77.82.28.83.47,1.68.15,2.55-.13.36-.36.66-.82.75-.9.19-1.38.72-1.87,1.26-.15.17-.31.35-.41.54-.37.67-.96,1.05-1.94,1.02-.79-.03-1.33.27-1.64.86-.33.66-.93,1.15-1.75,1.5-1.05.46-2.03.98-3.03,1.5-.4.21-.78.46-1.11.74-.52.46-1.1.8-1.93.81-.13,0-.26.04-.38.07-.31.08-.6.21-.64.48-.1.78-.78,1.21-1.56,1.58-.15.07-.27.17-.41.27h0Z"/>
  <path class="st0" d="M37.89,56.84c.12-1.35.17-2.7.36-4.04.1-.71.45-1.41.73-2.1.2-.51.68-.9,1.18-1.24.72-.49,1.57-.68,2.48-.42.96.27,1.91.58,2.81.93,2.39.93,2.38.95,3.17,2.93.54,1.33.9,2.67.86,4.09-.01.65.2,1.3.37,1.95.13.51.36,1,.52,1.51.14.44.28.87.06,1.33-.18.37.05.69.38.94.72.53,1.51.84,2.53.48,1.01-.36,2.03-.69,3.04-1.04.32-.11.65-.22.97-.34,1.19-.46,2.33-.33,3.4.23.88.46,1.7,1.01,2.75,1.23.15.03.29.15.42.25.73.51.73.93-.08,1.34-.58.29-1.02.62-1.32,1.12-.42.71-1.18,1.21-1.99,1.64-.37.19-.75.37-1.11.57-.52.28-.97.62-1.2,1.08-.41.82-1.18,1.37-2.11,1.81-.31.14-.6.29-.91.43-.4.18-.69.41-.84.77-.19.47-.61.84-1.05,1.19-.35.27-.68.55-1.02.82-.49.37-.83.81-1.04,1.32-.1.26-.2.54-.38.78-.86,1.16-.96,2.44-1,3.72-.04,1.04-.08,2.08-.05,3.13.01.57-.17,1-.77,1.35-.65.37-1.15.85-1.5,1.43-.15.27-.49.5-.81.67-.69.37-1.16.84-1.46,1.45-.31.62-.73,1.19-1.36,1.65-.81.6-1.7.44-2.05-.39-.29-.7-.66-1.38-1.25-1.94-.86-.83-1.13-1.79-1.29-2.79-.15-.89-.19-1.8-.33-2.69-.31-1.89-.52-3.79-1.06-5.66-.09-.33-.29-.59-.68-.73-.98-.35-1.57-.98-2.1-1.69-.33-.44-.78-.84-1.21-1.23-1.07-.97-2.35-1.8-3.25-2.89-.12-.14-.32-.24-.5-.34-.68-.4-1.29-.82-1.64-1.47-.17-.29-.58-.51-.93-.72-.82-.48-1.66-.93-2.51-1.38-.65-.35-1.32-.7-1.99-1.03-.61-.3-1.15-.65-1.5-1.15-.19-.27-.42-.54-.59-.82-.24-.4-.77-.77-.58-1.23.29-.75.59-1.54,1.5-2.03.55-.29,1.05-.64,1.61-.93.6-.31,1.24-.41,2.01-.35,1.6.12,3.15.43,4.68.75.09.02.17.07.26.07,1.41,0,2.53.57,3.64,1.14.45.23.93.4,1.41.58.79.31,1.46.07,2.08-.32.32-.2.32-.48.32-.76v-2.92h-.1v-.04Z"/>
</svg>