<svg xmlns="http://www.w3.org/2000/svg" viewBox="0 0 1200 675" width="1200" height="675" role="img" aria-label="BOI — Thailand investment incentives"><rect width="1200" height="675" fill="#121212"/><path d="M75 0V675M150 0V675M225 0V675M300 0V675M375 0V675M450 0V675M525 0V675M600 0V675M675 0V675M750 0V675M825 0V675M900 0V675M975 0V675M1050 0V675M1125 0V675M0 75H1200M0 150H1200M0 225H1200M0 300H1200M0 375H1200M0 450H1200M0 525H1200M0 600H1200" stroke="#fff" stroke-opacity="0.07" stroke-width="1" fill="none"/><text x="60" y="70" font-family="SFMono-Regular, Menlo, Consolas, monospace" font-size="15" font-weight="700" letter-spacing="3" fill="#fff" fill-opacity="0.8" >MIRAI BIZLAB — JOURNAL</text><text x="1140" y="70" font-family="SFMono-Regular, Menlo, Consolas, monospace" font-size="15" font-weight="700" letter-spacing="3" fill="#fff" fill-opacity="0.8" text-anchor="end">No.03</text><circle cx="930" cy="320" r="200" fill="none" stroke="#D7000F" stroke-width="3"/><circle cx="930" cy="320" r="130" fill="none" stroke="#D7000F" stroke-opacity=".5" stroke-width="2" stroke-dasharray="6 10"/><circle cx="930" cy="120" r="9" fill="#D7000F"/><text x="52" y="500" font-family="Helvetica Neue, Helvetica, Arial, sans-serif" font-weight="800" font-size="500" textLength="760" lengthAdjust="spacingAndGlyphs" fill="#fff"  >BOI</text><text x="60" y="625" font-family="SFMono-Regular, Menlo, Consolas, monospace" font-size="15" font-weight="700" letter-spacing="3" fill="#fff" fill-opacity="0.7" >INCORPORATION</text><text x="1140" y="625" font-family="SFMono-Regular, Menlo, Consolas, monospace" font-size="15" font-weight="700" letter-spacing="3" fill="#fff" fill-opacity="0.7" text-anchor="end">INVESTMENT PROMOTION</text><rect x="60" y="641" width="56" height="4" fill="#D7000F"/></svg>
