<svg xmlns="http://www.w3.org/2000/svg" viewBox="0 0 1200 675" width="1200" height="675" role="img" aria-label="51% — Thai shareholder requirement"><rect width="1200" height="675" fill="#D7000F"/><path d="M75 0V675M150 0V675M225 0V675M300 0V675M375 0V675M450 0V675M525 0V675M600 0V675M675 0V675M750 0V675M825 0V675M900 0V675M975 0V675M1050 0V675M1125 0V675M0 75H1200M0 150H1200M0 225H1200M0 300H1200M0 375H1200M0 450H1200M0 525H1200M0 600H1200" stroke="#fff" stroke-opacity="0.12" stroke-width="1" fill="none"/><text x="60" y="70" font-family="SFMono-Regular, Menlo, Consolas, monospace" font-size="15" font-weight="700" letter-spacing="3" fill="#fff" fill-opacity="0.8" >MIRAI BIZLAB — JOURNAL</text><text x="1140" y="70" font-family="SFMono-Regular, Menlo, Consolas, monospace" font-size="15" font-weight="700" letter-spacing="3" fill="#fff" fill-opacity="0.8" text-anchor="end">No.06</text><circle cx="930" cy="300" r="150" fill="none" stroke="#fff" stroke-opacity=".28" stroke-width="28"/><path d="M930 150A150 150 0 1 1 920.581422070603 449.70400926424077" fill="none" stroke="#fff" stroke-width="28"/><text x="52" y="510" font-family="Helvetica Neue, Helvetica, Arial, sans-serif" font-weight="800" font-size="520" textLength="760" lengthAdjust="spacingAndGlyphs" fill="#fff"  >51%</text><text x="60" y="625" font-family="SFMono-Regular, Menlo, Consolas, monospace" font-size="15" font-weight="700" letter-spacing="3" fill="#fff" fill-opacity="0.7" >INCORPORATION</text><text x="1140" y="625" font-family="SFMono-Regular, Menlo, Consolas, monospace" font-size="15" font-weight="700" letter-spacing="3" fill="#fff" fill-opacity="0.7" text-anchor="end">FOREIGN BUSINESS ACT</text><rect x="60" y="641" width="56" height="4" fill="#fff"/></svg>
