<svg xmlns="http://www.w3.org/2000/svg" viewBox="0 0 1200 750" width="1200" height="750" role="img" aria-label="e-Tax — Thailand e-invoicing"><rect width="1200" height="750" fill="#F3F1EC"/><path d="M75 0V750M150 0V750M225 0V750M300 0V750M375 0V750M450 0V750M525 0V750M600 0V750M675 0V750M750 0V750M825 0V750M900 0V750M975 0V750M1050 0V750M1125 0V750M0 75H1200M0 150H1200M0 225H1200M0 300H1200M0 375H1200M0 450H1200M0 525H1200M0 600H1200M0 675H1200" stroke="#141414" stroke-opacity="0.07" stroke-width="1" fill="none"/><text x="60" y="70" font-family="SFMono-Regular, Menlo, Consolas, monospace" font-size="15" font-weight="700" letter-spacing="3" fill="#141414" fill-opacity="0.8" >MIRAI BIZLAB — JOURNAL</text><text x="1140" y="70" font-family="SFMono-Regular, Menlo, Consolas, monospace" font-size="15" font-weight="700" letter-spacing="3" fill="#141414" fill-opacity="0.8" text-anchor="end">No.05</text><g transform="translate(0,37)"><rect x="960" y="100" width="13" height="13" fill="#141414"/><rect x="960" y="116" width="13" height="13" fill="#141414"/><rect x="960" y="132" width="13" height="13" fill="#141414"/><rect x="960" y="148" width="13" height="13" fill="#141414"/><rect x="960" y="180" width="13" height="13" fill="#141414"/><rect x="976" y="100" width="13" height="13" fill="#141414"/><rect x="976" y="116" width="13" height="13" fill="#141414"/><rect x="976" y="132" width="13" height="13" fill="#141414"/><rect x="976" y="164" width="13" height="13" fill="#141414"/><rect x="976" y="180" width="13" height="13" fill="#141414"/><rect x="976" y="196" width="13" height="13" fill="#141414"/><rect x="976" y="212" width="13" height="13" fill="#141414"/><rect x="992" y="100" width="13" height="13" fill="#141414"/><rect x="992" y="116" width="13" height="13" fill="#141414"/><rect x="992" y="132" width="13" height="13" fill="#141414"/><rect x="992" y="180" width="13" height="13" fill="#141414"/><rect x="992" y="196" width="13" height="13" fill="#141414"/><rect x="1008" y="100" width="13" height="13" fill="#141414"/><rect x="1008" y="196" width="13" height="13" fill="#141414"/><rect x="1008" y="212" width="13" height="13" fill="#141414"/><rect x="1024" y="100" width="13" height="13" fill="#141414"/><rect x="1024" y="116" width="13" height="13" fill="#141414"/><rect x="1024" y="148" width="13" height="13" fill="#141414"/><rect x="1024" y="196" width="13" height="13" fill="#141414"/><rect x="1024" y="212" width="13" height="13" fill="#141414"/><rect x="1040" y="116" width="13" height="13" fill="#141414"/><rect x="1040" y="132" width="13" height="13" fill="#141414"/><rect x="1040" y="164" width="13" height="13" fill="#141414"/><rect x="1040" y="228" width="13" height="13" fill="#141414"/><rect x="1056" y="100" width="13" height="13" fill="#141414"/><rect x="1056" y="196" width="13" height="13" fill="#141414"/><rect x="1056" y="212" width="13" height="13" fill="#141414"/><rect x="1072" y="100" width="13" height="13" fill="#141414"/><rect x="1072" y="116" width="13" height="13" fill="#141414"/><rect x="1072" y="132" width="13" height="13" fill="#141414"/><rect x="1072" y="180" width="13" height="13" fill="#141414"/><rect x="1072" y="196" width="13" height="13" fill="#141414"/><rect x="1072" y="212" width="13" height="13" fill="#141414"/><rect x="1088" y="100" width="13" height="13" fill="#141414"/><rect x="1088" y="116" width="13" height="13" fill="#141414"/><rect x="1088" y="148" width="13" height="13" fill="#141414"/><rect x="1088" y="196" width="13" height="13" fill="#141414"/><rect x="1088" y="212" width="13" height="13" fill="#141414"/><circle cx="1010" cy="140" r="0" fill="#D7000F"/><rect x="960" y="256" width="144" height="5" fill="#D7000F"/><text x="52" y="490" font-family="Helvetica Neue, Helvetica, Arial, sans-serif" font-weight="800" font-size="400" textLength="880" lengthAdjust="spacingAndGlyphs" fill="#141414"  >e-Tax</text></g><text x="60" y="700" font-family="SFMono-Regular, Menlo, Consolas, monospace" font-size="15" font-weight="700" letter-spacing="3" fill="#141414" fill-opacity="0.7" >TAX</text><text x="1140" y="700" font-family="SFMono-Regular, Menlo, Consolas, monospace" font-size="15" font-weight="700" letter-spacing="3" fill="#141414" fill-opacity="0.7" text-anchor="end">E-TAX INVOICE</text><rect x="60" y="716" width="56" height="4" fill="#D7000F"/></svg>
